<svg width="42" height="42" viewBox="0 0 54 54" fill="none" xmlns="http://www.w3.org/2000/svg">
<circle cx="27" cy="27" r="27" fill="#EABF77"/>
<path d="M33.8793 12H20.1207C15.6429 12 12 15.6429 12 20.1207V33.8795C12 38.3571 15.6429 42 20.1207 42H33.8795C38.3571 42 42 38.3571 42 33.8795V20.1207C42 15.6429 38.3571 12 33.8793 12ZM27 35.2029C22.4769 35.2029 18.7971 31.5231 18.7971 27C18.7971 22.4769 22.4769 18.7971 27 18.7971C31.5231 18.7971 35.2029 22.4769 35.2029 27C35.2029 31.5231 31.5231 35.2029 27 35.2029ZM35.3991 20.7316C34.0624 20.7316 32.9752 19.6444 32.9752 18.3077C32.9752 16.9711 34.0624 15.8837 35.3991 15.8837C36.7357 15.8837 37.8231 16.9711 37.8231 18.3077C37.8231 19.6444 36.7357 20.7316 35.3991 20.7316Z" fill="#211B1B"/>
<path d="M27 20.5547C23.4469 20.5547 20.5559 23.4454 20.5559 26.9988C20.5559 30.552 23.4469 33.443 27 33.443C30.5535 33.443 33.4442 30.552 33.4442 26.9988C33.4442 23.4454 30.5535 20.5547 27 20.5547Z" fill="#211B1B"/>
<path d="M35.408 17.0391C34.7136 17.0391 34.1484 17.6044 34.1484 18.2988C34.1484 18.9933 34.7136 19.5586 35.408 19.5586C36.1028 19.5586 36.668 18.9937 36.668 18.2988C36.668 17.6039 36.1028 17.0391 35.408 17.0391Z" fill="#211B1B"/>
</svg>
