<svg width="151" height="198" viewBox="0 0 151 198" fill="none" xmlns="http://www.w3.org/2000/svg">
<path d="M1.70312 30.9062L36.8594 1.375C45.3906 4.84375 51.6719 9.53125 55.7031 15.4375C59.8281 21.3438 61.8906 28.9844 61.8906 38.3594V156.062C61.8906 159.344 62.4531 161.781 63.5781 163.375C65.5469 166.281 69.2031 169.703 74.5469 173.641L89.875 161.125L94.375 165.906L57.25 196L23.0781 173.641L32.5 161.125V55.7969C32.5 48.6719 32.0312 43.75 31.0938 41.0312C29.5938 36.5312 27.3438 32.9688 24.3438 30.3438C22.1875 28.5625 20.3125 27.6719 18.7188 27.6719C16.8438 27.6719 14.2656 29.0313 10.9844 31.75C9.01562 33.3437 7.32812 34.6563 5.92188 35.6875L1.70312 30.9062ZM128.052 196L106.677 174.625L128.052 153.109L149.568 174.625L128.052 196Z" fill="#EABF77"/>
<path d="M1.70312 30.9062L1.05993 30.1405L0.275375 30.7996L0.953287 31.5679L1.70312 30.9062ZM36.8594 1.375L37.236 0.448643L36.6777 0.22163L36.2162 0.609295L36.8594 1.375ZM55.7031 15.4375L54.8771 16.0013L54.8833 16.0101L55.7031 15.4375ZM63.5781 163.375L64.406 162.814L64.4006 162.806L64.3951 162.798L63.5781 163.375ZM74.5469 173.641L73.9537 174.446L74.5783 174.906L75.1793 174.415L74.5469 173.641ZM89.875 161.125L90.6032 160.44L89.9644 159.761L89.2425 160.35L89.875 161.125ZM94.375 165.906L95.0047 166.683L95.8412 166.005L95.1032 165.221L94.375 165.906ZM57.25 196L56.7025 196.837L57.313 197.236L57.8797 196.777L57.25 196ZM23.0781 173.641L22.2792 173.039L21.6368 173.893L22.5306 174.477L23.0781 173.641ZM32.5 161.125L33.2989 161.726L33.5 161.459V161.125H32.5ZM31.0938 41.0312L30.145 41.3475L30.1484 41.3572L31.0938 41.0312ZM24.3438 30.3438L25.0023 29.5912L24.9916 29.5818L24.9806 29.5728L24.3438 30.3438ZM10.9844 31.75L11.6136 32.5273L11.6224 32.52L10.9844 31.75ZM5.92188 35.6875L5.17204 36.3491L5.7765 37.0342L6.51324 36.4939L5.92188 35.6875ZM2.34632 31.672L37.5026 2.14071L36.2162 0.609295L1.05993 30.1405L2.34632 31.672ZM36.4827 2.30136C44.8838 5.71718 50.9847 10.2983 54.8772 16.0012L56.5291 14.8738C52.3591 8.76422 45.8975 3.97032 37.236 0.448643L36.4827 2.30136ZM54.8833 16.0101C58.8602 21.7043 60.8906 29.1279 60.8906 38.3594H62.8906C62.8906 28.8409 60.796 20.9832 56.523 14.8649L54.8833 16.0101ZM60.8906 38.3594V156.062H62.8906V38.3594H60.8906ZM60.8906 156.062C60.8906 159.423 61.4604 162.109 62.7612 163.952L64.3951 162.798C63.4458 161.454 62.8906 159.264 62.8906 156.062H60.8906ZM62.7502 163.936C64.8167 166.986 68.5848 170.49 73.9537 174.446L75.1401 172.836C69.8214 168.917 66.2771 165.576 64.406 162.814L62.7502 163.936ZM75.1793 174.415L90.5075 161.9L89.2425 160.35L73.9144 172.866L75.1793 174.415ZM89.1468 161.81L93.6468 166.592L95.1032 165.221L90.6032 160.44L89.1468 161.81ZM93.7453 165.129L56.6203 195.223L57.8797 196.777L95.0047 166.683L93.7453 165.129ZM57.7975 195.163L23.6257 172.804L22.5306 174.477L56.7025 196.837L57.7975 195.163ZM23.877 174.242L33.2989 161.726L31.7011 160.524L22.2792 173.039L23.877 174.242ZM33.5 161.125V55.7969H31.5V161.125H33.5ZM33.5 55.7969C33.5 48.6773 33.0374 43.6004 32.0391 40.7053L30.1484 41.3572C31.0251 43.8996 31.5 48.6664 31.5 55.7969H33.5ZM32.0424 40.715C30.4969 36.0786 28.1595 32.3537 25.0023 29.5912L23.6852 31.0963C26.528 33.5838 28.6906 36.9839 30.1451 41.3475L32.0424 40.715ZM24.9806 29.5728C22.7669 27.7441 20.6649 26.6719 18.7188 26.6719V28.6719C19.9601 28.6719 21.6081 29.3809 23.7069 31.1147L24.9806 29.5728ZM18.7188 26.6719C17.553 26.6719 16.2731 27.0894 14.9125 27.8068C13.5415 28.5297 12.0181 29.5948 10.3464 30.98L11.6224 32.52C13.2319 31.1864 14.6382 30.2125 15.8453 29.576C17.0628 28.934 18.0095 28.6719 18.7188 28.6719V26.6719ZM10.3552 30.9728C8.39381 32.5605 6.71962 33.8624 5.33051 34.8811L6.51324 36.4939C7.93663 35.4501 9.63744 34.127 11.6136 32.5272L10.3552 30.9728ZM6.67171 35.0259L2.45296 30.2446L0.953287 31.5679L5.17204 36.3491L6.67171 35.0259ZM128.052 196L127.345 196.707L128.05 197.412L128.757 196.709L128.052 196ZM106.677 174.625L105.967 173.92L105.265 174.627L105.97 175.332L106.677 174.625ZM128.052 153.109L128.759 152.402L128.05 151.693L127.342 152.405L128.052 153.109ZM149.568 174.625L150.272 175.334L150.984 174.627L150.275 173.918L149.568 174.625ZM128.759 195.293L107.384 173.918L105.97 175.332L127.345 196.707L128.759 195.293ZM107.386 175.33L128.761 153.814L127.342 152.405L105.967 173.92L107.386 175.33ZM127.345 153.816L148.86 175.332L150.275 173.918L128.759 152.402L127.345 153.816ZM148.863 173.916L127.347 195.291L128.757 196.709L150.272 175.334L148.863 173.916Z" fill="#EABF77"/>
</svg>
