<svg width="204" height="198" viewBox="0 0 204 198" fill="none" xmlns="http://www.w3.org/2000/svg">
<path d="M3.6875 45.25L62.1875 1.375L129.969 42.1562C130.344 47.5938 130.531 52.1406 130.531 55.7969C130.531 71.1719 126.312 84.2969 117.875 95.1719C109.438 106.047 90.5469 119.781 61.2031 136.375C47.9844 143.875 38.6562 149.922 33.2188 154.516C27.875 159.016 23.0469 164.547 18.7344 171.109C30.1719 166.047 40.1094 162.531 48.5469 160.562C57.0781 158.5 65.4688 157.469 73.7188 157.469C80.75 157.469 87.9219 157.984 95.2344 159.016C102.641 160.047 108.266 161.078 112.109 162.109L133.906 169.141L109.438 196C94.8125 190.938 84.8281 187.891 79.4844 186.859C71.0469 185.078 63.0781 184.188 55.5781 184.188C41.3281 184.188 25.8125 187.422 9.03125 193.891C5.46875 195.297 3.40625 196 2.84375 196C2.28125 196 1.85938 195.812 1.57812 195.438C1.20312 194.969 1.01562 194.266 1.01562 193.328C1.01562 188.828 2.5625 183.344 5.65625 176.875C9.78125 168.062 15.7344 159.391 23.5156 150.859C29.0469 144.672 38.0469 136.516 50.5156 126.391C62.9844 116.266 71.6094 108.578 76.3906 103.328C83.0469 95.9219 88.1562 88.1875 91.7188 80.125C95.375 72.0625 97.2031 63.4844 97.2031 54.3906C97.2031 40.7969 92.1406 29.5938 82.0156 20.7812L23.6562 65.5L3.6875 45.25ZM180.172 196L158.797 174.625L180.172 153.109L201.688 174.625L180.172 196Z" fill="#EABF77"/>
<path d="M3.6875 45.25L3.0875 44.45L2.17158 45.1369L2.97547 45.9521L3.6875 45.25ZM62.1875 1.375L62.703 0.518135L62.1261 0.171028L61.5875 0.575001L62.1875 1.375ZM129.969 42.1562L130.966 42.0874L130.931 41.5679L130.484 41.2994L129.969 42.1562ZM61.2031 136.375L60.7109 135.505L60.7096 135.505L61.2031 136.375ZM33.2188 154.516L33.8629 155.281L33.8641 155.28L33.2188 154.516ZM18.7344 171.109L17.8987 170.56L16.0336 173.398L19.1391 172.024L18.7344 171.109ZM48.5469 160.562L48.7741 161.536L48.7819 161.535L48.5469 160.562ZM95.2344 159.016L95.0947 160.006L95.0965 160.006L95.2344 159.016ZM112.109 162.109L112.416 161.158L112.393 161.15L112.368 161.144L112.109 162.109ZM133.906 169.141L134.645 169.814L135.692 168.666L134.213 168.189L133.906 169.141ZM109.438 196L109.11 196.945L109.733 197.161L110.177 196.673L109.438 196ZM79.4844 186.859L79.2778 187.838L79.2863 187.84L79.2949 187.841L79.4844 186.859ZM9.03125 193.891L8.67156 192.958L8.66408 192.96L9.03125 193.891ZM1.57812 195.438L2.37813 194.837L2.36875 194.825L2.35899 194.813L1.57812 195.438ZM5.65625 176.875L6.55842 177.306L6.56194 177.299L5.65625 176.875ZM23.5156 150.859L24.2545 151.533L24.2612 151.526L23.5156 150.859ZM76.3906 103.328L77.13 104.001L77.1344 103.997L76.3906 103.328ZM91.7188 80.125L90.808 79.712L90.8041 79.7208L91.7188 80.125ZM82.0156 20.7812L82.6721 20.0269L82.0559 19.4906L81.4074 19.9875L82.0156 20.7812ZM23.6562 65.5L22.9442 66.2021L23.5639 66.8306L24.2645 66.2938L23.6562 65.5ZM4.2875 46.05L62.7875 2.175L61.5875 0.575001L3.0875 44.45L4.2875 46.05ZM61.672 2.23186L129.453 43.0131L130.484 41.2994L62.703 0.518135L61.672 2.23186ZM128.971 42.2251C129.345 47.6496 129.531 52.1717 129.531 55.7969H131.531C131.531 52.1095 131.342 47.5379 130.966 42.0874L128.971 42.2251ZM129.531 55.7969C129.531 70.9773 125.37 83.8797 117.085 94.5589L118.665 95.7849C127.255 84.714 131.531 71.3664 131.531 55.7969H129.531ZM117.085 94.5589C108.784 105.258 90.0596 118.908 60.7109 135.505L61.6954 137.245C91.0341 120.655 110.091 106.836 118.665 95.7849L117.085 94.5589ZM60.7096 135.505C47.4834 143.01 38.0863 149.094 32.5734 153.752L33.8641 155.28C39.2262 150.749 48.4854 144.74 61.6966 137.245L60.7096 135.505ZM32.5746 153.751C27.1484 158.32 22.2578 163.927 17.8987 170.56L19.5701 171.659C23.836 165.167 28.6016 159.711 33.8629 155.281L32.5746 153.751ZM19.1391 172.024C30.5422 166.977 40.4177 163.486 48.7741 161.536L48.3196 159.589C39.801 161.576 29.8015 165.117 18.3296 170.195L19.1391 172.024ZM48.7819 161.535C57.2411 159.489 65.5528 158.469 73.7188 158.469V156.469C65.3847 156.469 56.9152 157.511 48.3119 159.59L48.7819 161.535ZM73.7188 158.469C80.701 158.469 87.8262 158.981 95.0947 160.006L95.374 158.025C88.0176 156.988 80.799 156.469 73.7188 156.469V158.469ZM95.0965 160.006C102.491 161.036 108.067 162.06 111.85 163.075L112.368 161.144C108.464 160.096 102.791 159.058 95.3723 158.025L95.0965 160.006ZM111.802 163.061L133.599 170.092L134.213 168.189L112.416 161.158L111.802 163.061ZM133.167 168.467L108.698 195.327L110.177 196.673L134.645 169.814L133.167 168.467ZM109.765 195.055C95.1483 189.996 85.0985 186.924 79.6739 185.877L79.2949 187.841C84.5578 188.857 94.4767 191.879 109.11 196.945L109.765 195.055ZM79.6909 185.881C71.1954 184.087 63.157 183.188 55.5781 183.188V185.188C62.9993 185.188 70.8984 186.069 79.2778 187.838L79.6909 185.881ZM55.5781 183.188C41.1776 183.188 25.5387 186.456 8.67157 192.958L9.39093 194.824C26.0863 188.388 41.4786 185.188 55.5781 185.188V183.188ZM8.66408 192.96C6.88834 193.661 5.49903 194.182 4.48983 194.526C3.98437 194.698 3.58591 194.822 3.28814 194.902C2.959 194.99 2.83893 195 2.84375 195V197C3.12982 197 3.4785 196.922 3.80561 196.834C4.16409 196.738 4.60938 196.598 5.13517 196.419C6.18847 196.06 7.61166 195.526 9.39842 194.821L8.66408 192.96ZM2.84375 195C2.52524 195 2.43175 194.909 2.37813 194.837L0.778125 196.038C1.287 196.716 2.03726 197 2.84375 197V195ZM2.35899 194.813C2.18613 194.597 2.01562 194.159 2.01562 193.328H0.015625C0.015625 194.372 0.220121 195.341 0.797256 196.062L2.35899 194.813ZM2.01562 193.328C2.01562 189.04 3.49499 183.712 6.55838 177.306L4.75412 176.444C1.63001 182.976 0.015625 188.616 0.015625 193.328H2.01562ZM6.56194 177.299C10.6371 168.593 16.5288 160.004 24.2545 151.533L22.7768 150.185C14.9399 158.778 8.92537 167.532 4.75056 176.451L6.56194 177.299ZM24.2612 151.526C29.7379 145.399 38.6879 137.283 51.146 127.167L49.8853 125.614C37.4059 135.748 28.3558 143.944 22.7701 150.193L24.2612 151.526ZM51.146 127.167C63.6176 117.04 72.2939 109.312 77.13 104.001L75.6513 102.655C70.9248 107.845 62.3512 115.492 49.8853 125.614L51.146 127.167ZM77.1344 103.997C83.8522 96.5218 89.0231 88.6998 92.6334 80.5292L90.8041 79.7208C87.2894 87.6752 82.2416 95.3219 75.6469 102.66L77.1344 103.997ZM92.6295 80.538C96.3462 72.3422 98.2031 63.6228 98.2031 54.3906H96.2031C96.2031 63.3459 94.4038 71.7828 90.808 79.712L92.6295 80.538ZM98.2031 54.3906C98.2031 40.5118 93.0185 29.0321 82.6721 20.0269L81.3591 21.5356C91.2627 30.1554 96.2031 41.0819 96.2031 54.3906H98.2031ZM81.4074 19.9875L23.048 64.7062L24.2645 66.2938L82.6239 21.575L81.4074 19.9875ZM24.3683 64.7979L4.39953 44.5479L2.97547 45.9521L22.9442 66.2021L24.3683 64.7979ZM180.172 196L179.465 196.707L180.17 197.412L180.877 196.709L180.172 196ZM158.797 174.625L158.087 173.92L157.385 174.627L158.09 175.332L158.797 174.625ZM180.172 153.109L180.879 152.402L180.17 151.693L179.462 152.405L180.172 153.109ZM201.688 174.625L202.392 175.334L203.104 174.627L202.395 173.918L201.688 174.625ZM180.879 195.293L159.504 173.918L158.09 175.332L179.465 196.707L180.879 195.293ZM159.506 175.33L180.881 153.814L179.462 152.405L158.087 173.92L159.506 175.33ZM179.465 153.816L200.98 175.332L202.395 173.918L180.879 152.402L179.465 153.816ZM200.983 173.916L179.467 195.291L180.877 196.709L202.392 175.334L200.983 173.916Z" fill="#EABF77"/>
</svg>
