<svg width="357" height="738" viewBox="0 0 357 738" fill="none" xmlns="http://www.w3.org/2000/svg">
<path d="M628.962 5.53593L632.118 4.23238L630.76 0.945267L627.531 2.43564L628.962 5.53593ZM638.085 27.6239L639.578 30.6949L642.468 29.2902L641.241 26.3204L638.085 27.6239ZM563.658 98.2096L566.898 99.2894L566.902 99.278L566.905 99.2667L563.658 98.2096ZM557.416 193.284L554.002 193.36L554.002 193.362L557.416 193.284ZM565.579 551.974L568.993 551.919L568.993 551.908L568.993 551.897L565.579 551.974ZM578.064 629.282L580.953 627.463L580.951 627.459L578.064 629.282ZM640.966 614.397L643.654 612.291L641.336 609.334L638.614 611.922L640.966 614.397ZM654.892 632.163L657.11 634.759L659.598 632.633L657.579 630.057L654.892 632.163ZM565.579 708.511L567.748 711.148L567.773 711.128L567.798 711.107L565.579 708.511ZM535.808 733L534.36 736.092L536.312 737.007L537.977 735.637L535.808 733ZM481.549 685.943L478.545 687.568L478.556 687.587L478.566 687.605L481.549 685.943ZM463.782 592.309L467.195 592.207L466.998 585.592L461.721 589.587L463.782 592.309ZM277.955 733L276.075 735.851L278.091 737.18L280.016 735.722L277.955 733ZM43.1495 639.366L45.3858 641.946L45.4099 641.925L45.4337 641.904L43.1495 639.366ZM45.0702 684.502L48.0043 682.756L47.993 682.737L47.9814 682.718L45.0702 684.502ZM50.3521 726.758L52.6755 729.26L52.7218 729.217L52.7665 729.172L50.3521 726.758ZM14.8192 723.396L17.5508 721.348L17.5096 721.293L17.4663 721.24L14.8192 723.396ZM17.22 638.406L14.1258 636.962L14.1204 636.973L14.1151 636.985L17.22 638.406ZM56.5943 575.983L59.2979 578.069L59.3233 578.036L59.3479 578.002L56.5943 575.983ZM66.1978 562.538L63.4443 560.519L63.4168 560.556L63.3904 560.595L66.1978 562.538ZM134.863 468.904L137.616 470.923L139.612 468.202L136.915 466.175L134.863 468.904ZM36.9072 368.548L33.9535 370.261L33.9599 370.272L33.9663 370.283L36.9072 368.548ZM44.1098 132.782L41.1839 131.022L41.1787 131.031L41.1734 131.039L44.1098 132.782ZM150.228 39.6283L148.751 36.5497L148.743 36.5536L150.228 39.6283ZM517.562 85.2449L515.517 87.9795L517.951 89.7993L520.04 87.5932L517.562 85.2449ZM567.5 40.5887L569.495 43.3597L569.513 43.3467L569.531 43.3334L567.5 40.5887ZM392.716 116.936L395.474 118.95L397.871 115.667L394.224 113.873L392.716 116.936ZM152.149 115.496L153.666 118.555L153.676 118.55L153.686 118.545L152.149 115.496ZM68.1185 188.002L71.007 189.823L71.0114 189.816L71.0158 189.809L68.1185 188.002ZM146.867 453.058L144.887 455.84L147.634 457.795L149.624 455.073L146.867 453.058ZM307.245 233.619L310.002 235.634L312.299 232.49L308.883 230.623L307.245 233.619ZM177.118 251.385L174.294 249.466L174.257 249.52L174.223 249.575L177.118 251.385ZM161.753 256.187L159.129 258.373L159.229 258.492L159.338 258.601L161.753 256.187ZM174.237 207.689L171.286 205.972L171.274 205.992L171.262 206.013L174.237 207.689ZM218.893 164.954L217.251 161.96L217.241 161.966L217.231 161.971L218.893 164.954ZM357.664 164.954L356.445 168.144L358.883 169.075L360.422 166.967L357.664 164.954ZM454.659 166.394L458.072 166.315L458.043 165.044L457.189 164.101L454.659 166.394ZM435.932 146.707L433.518 149.122L433.581 149.185L433.648 149.245L435.932 146.707ZM411.923 128.941L413.877 126.14L411.142 124.232L409.17 126.922L411.923 128.941ZM202.087 415.125L199.333 413.106L195.349 418.539H202.087V415.125ZM460.421 415.125V418.539H463.916L463.835 415.046L460.421 415.125ZM150.228 485.23V481.815H148.479L147.457 483.235L150.228 485.23ZM107.013 545.252L104.242 543.257L101.759 546.705L105.661 548.387L107.013 545.252ZM350.941 650.41L349.589 653.546L351.39 654.322L352.967 653.158L350.941 650.41ZM464.262 566.86L466.289 569.608L467.718 568.554L467.676 566.779L464.262 566.86ZM462.342 485.23L465.755 485.15L465.677 481.815H462.342V485.23ZM625.806 6.83948L634.929 28.9275L641.241 26.3204L632.118 4.23238L625.806 6.83948ZM636.593 24.553C613.386 35.8338 595.879 47.235 584.292 58.8217L589.121 63.6506C599.943 52.8291 616.688 41.8223 639.578 30.6949L636.593 24.553ZM584.292 58.8217C573.053 70.0615 565.07 82.8435 560.412 97.1525L566.905 99.2667C571.21 86.0456 578.593 74.1787 589.121 63.6506L584.292 58.8217ZM560.419 97.1298C555.759 111.108 553.521 131.722 553.521 158.712H560.351C560.351 131.921 562.594 112.2 566.898 99.2894L560.419 97.1298ZM553.521 158.712C553.521 167.391 553.682 178.944 554.002 193.36L560.83 193.208C560.51 178.814 560.351 167.318 560.351 158.712H553.521ZM554.002 193.362L562.165 552.052L568.993 551.897L560.83 193.206L554.002 193.362ZM562.165 552.03C562.487 571.807 563.693 588.271 565.81 601.376C567.914 614.406 570.964 624.436 575.177 631.106L580.951 627.459C577.48 621.965 574.609 613.028 572.551 600.288C570.506 587.624 569.312 571.516 568.993 551.919L562.165 552.03ZM575.174 631.102C581.01 640.371 588.518 645.662 597.751 645.662V638.832C591.617 638.832 586.001 635.48 580.953 627.463L575.174 631.102ZM597.751 645.662C603.401 645.662 610.012 642.894 617.367 638.155C624.821 633.351 633.478 626.229 643.319 616.872L638.614 611.922C628.928 621.132 620.619 627.935 613.668 632.414C606.617 636.958 601.384 638.832 597.751 638.832V645.662ZM638.279 616.503L652.204 634.27L657.579 630.057L643.654 612.291L638.279 616.503ZM652.673 629.568L563.36 705.916L567.798 711.107L657.11 634.759L652.673 629.568ZM563.41 705.874L533.639 730.363L537.977 735.637L567.748 711.148L563.41 705.874ZM537.257 729.908C512.453 718.291 494.988 703.041 484.531 684.281L478.566 687.605C489.877 707.899 508.585 724.021 534.36 736.092L537.257 729.908ZM484.552 684.318C474.383 665.52 468.472 634.978 467.195 592.207L460.369 592.411C461.653 635.431 467.587 667.311 478.545 687.568L484.552 684.318ZM461.721 589.587L275.894 730.278L280.016 735.722L465.843 595.031L461.721 589.587ZM279.834 730.149C228.073 696.016 184.478 670.357 149.075 653.219C113.797 636.141 86.2303 627.308 66.678 627.308V634.137C84.5793 634.137 110.952 642.351 146.1 659.366C181.123 676.32 224.438 701.799 276.075 735.851L279.834 730.149ZM66.678 627.308C56.6224 627.308 47.9456 630.456 40.8652 636.828L45.4337 641.904C51.1579 636.752 58.1668 634.137 66.678 634.137V627.308ZM40.9131 636.786C35.2075 641.731 32.5323 648.686 32.5323 657.132H39.3614C39.3614 650.214 41.488 645.324 45.3858 641.946L40.9131 636.786ZM32.5323 657.132C32.5323 666.288 35.8729 676.031 42.1589 686.287L47.9814 682.718C42.103 673.127 39.3614 664.623 39.3614 657.132H32.5323ZM42.136 686.249C46.1072 692.921 49.0378 698.362 50.9649 702.601C52.9625 706.996 53.6599 709.639 53.6599 710.912H60.4891C60.4891 708.023 59.1858 704.184 57.1819 699.776C55.1076 695.212 52.036 689.529 48.0043 682.756L42.136 686.249ZM53.6599 710.912C53.6599 716.047 51.8089 720.472 47.9376 724.343L52.7665 729.172C57.8585 724.08 60.4891 717.941 60.4891 710.912H53.6599ZM48.0286 724.256C44.2104 727.801 39.6111 729.585 34.0261 729.585V736.415C41.2459 736.415 47.5305 734.037 52.6755 729.26L48.0286 724.256ZM34.0261 729.585C27.098 729.585 21.7077 726.89 17.5508 721.348L12.0875 725.445C17.5341 732.707 24.9485 736.415 34.0261 736.415V729.585ZM17.4663 721.24C11.0281 713.338 7.66991 702.953 7.66991 689.784H0.840767C0.840767 704.145 4.52513 716.169 12.1721 725.553L17.4663 721.24ZM7.66991 689.784C7.66991 675.05 11.818 658.416 20.3249 639.827L14.1151 636.985C5.33585 656.169 0.840767 673.788 0.840767 689.784H7.66991ZM20.3143 639.85C29.1427 620.931 42.1174 600.34 59.2979 578.069L53.8907 573.897C36.4987 596.443 23.2238 617.466 14.1258 636.962L20.3143 639.85ZM59.3479 578.002C62.8844 573.18 66.1038 568.673 69.0053 564.482L63.3904 560.595C60.5297 564.727 57.3469 569.183 53.8408 573.964L59.3479 578.002ZM68.9514 564.557L137.616 470.923L132.109 466.885L63.4443 560.519L68.9514 564.557ZM136.915 466.175C90.6767 431.417 58.4151 398.282 39.8481 366.813L33.9663 370.283C53.173 402.837 86.2151 436.606 132.811 471.634L136.915 466.175ZM39.8609 366.835C21.6179 335.381 12.4717 300.127 12.4717 260.989H5.64251C5.64251 301.24 15.063 337.691 33.9535 370.261L39.8609 366.835ZM12.4717 260.989C12.4717 215.501 23.9929 173.368 47.0462 134.525L41.1734 131.039C17.4897 170.945 5.64251 214.283 5.64251 260.989H12.4717ZM47.0357 134.542C70.3367 95.8124 105.17 65.1833 151.713 42.703L148.743 36.5536C101.173 59.5298 65.2602 91.0033 41.1839 131.022L47.0357 134.542ZM151.705 42.7069C198.646 20.188 246.801 8.9505 296.201 8.9505V2.12136C245.725 2.12136 196.565 13.6121 148.751 36.5497L151.705 42.7069ZM296.201 8.9505C371.858 8.9505 444.943 35.2083 515.517 87.9795L519.606 82.5103C448.048 29.0028 373.56 2.12136 296.201 2.12136V8.9505ZM520.04 87.5932C537.217 69.4623 553.703 54.7299 569.495 43.3597L565.505 37.8176C549.285 49.4958 532.479 64.5342 515.083 82.8965L520.04 87.5932ZM569.531 43.3334C585.294 31.669 605.562 20.0967 630.393 8.63622L627.531 2.43564C602.424 14.0235 581.718 25.8197 565.469 37.8439L569.531 43.3334ZM394.224 113.873C353.479 93.8233 312.791 83.751 272.193 83.751V90.5801C311.623 90.5801 351.285 100.355 391.209 120L394.224 113.873ZM272.193 83.751C229.091 83.751 188.549 93.316 150.612 112.447L153.686 118.545C190.656 99.902 230.143 90.5801 272.193 90.5801V83.751ZM150.632 112.437C112.721 131.23 84.1825 155.792 65.2212 186.195L71.0158 189.809C89.188 160.671 116.67 136.895 153.666 118.555L150.632 112.437ZM65.23 186.181C46.3625 216.109 36.8538 246.983 36.8538 278.755H43.683C43.683 248.424 52.7411 218.797 71.007 189.823L65.23 186.181ZM36.8538 278.755C36.8538 345.83 73.2461 404.852 144.887 455.84L148.847 450.276C78.3566 400.108 43.683 342.928 43.683 278.755H36.8538ZM149.624 455.073L310.002 235.634L304.489 231.604L144.11 451.044L149.624 455.073ZM308.883 230.623C284.573 217.333 262.393 210.517 242.422 210.517V217.346C260.865 217.346 281.901 223.655 305.607 236.615L308.883 230.623ZM242.422 210.517C214.553 210.517 191.795 223.71 174.294 249.466L179.942 253.304C196.374 229.122 217.151 217.346 242.422 217.346V210.517ZM174.223 249.575C171.112 254.553 168.798 255.653 167.515 255.653V262.483C172.634 262.483 176.722 258.461 180.014 253.195L174.223 249.575ZM167.515 255.653C166.819 255.653 165.715 255.321 164.167 253.772L159.338 258.601C161.631 260.894 164.369 262.483 167.515 262.483V255.653ZM164.376 254.001C163.363 252.786 162.766 251.195 162.766 248.984H155.937C155.937 252.536 156.941 255.747 159.129 258.373L164.376 254.001ZM162.766 248.984C162.766 239.997 167.335 226.889 177.212 209.366L171.262 206.013C161.292 223.703 155.937 238.125 155.937 248.984H162.766ZM177.188 209.406C187.094 192.381 201.51 178.552 220.556 167.936L217.231 161.971C197.222 173.124 181.867 187.785 171.286 205.972L177.188 209.406ZM220.535 167.948C239.9 157.328 260.145 152.042 281.316 152.042V145.213C258.951 145.213 237.581 150.811 217.251 161.96L220.535 167.948ZM281.316 152.042C303.187 152.042 328.212 157.358 356.445 168.144L358.882 161.764C330.134 150.782 304.261 145.213 281.316 145.213V152.042ZM360.422 166.967L395.474 118.95L389.958 114.923L354.906 162.941L360.422 166.967ZM457.189 164.101C447.931 153.886 441.57 147.188 438.216 144.169L433.648 149.245C436.696 151.989 442.82 158.415 452.129 168.687L457.189 164.101ZM438.346 144.293C437.015 142.961 434.24 140.771 430.28 137.84C426.242 134.852 420.771 130.95 413.877 126.14L409.97 131.741C416.841 136.535 422.254 140.396 426.218 143.33C430.261 146.322 432.608 148.213 433.518 149.122L438.346 144.293ZM409.17 126.922L199.333 413.106L204.841 417.144L414.677 130.96L409.17 126.922ZM202.087 418.539H460.421V411.71H202.087V418.539ZM463.835 415.046L458.072 166.315L451.245 166.473L457.007 415.204L463.835 415.046ZM147.457 483.235L104.242 543.257L109.784 547.247L152.999 487.225L147.457 483.235ZM105.661 548.387L349.589 653.546L352.293 647.274L108.364 542.116L105.661 548.387ZM352.967 653.158L466.289 569.608L462.236 564.111L348.915 647.662L352.967 653.158ZM467.676 566.779L465.755 485.15L458.928 485.31L460.849 566.94L467.676 566.779ZM462.342 481.815H150.228V488.645H462.342V481.815Z" fill="#EABF77"/>
</svg>
