<svg width="182" height="134" viewBox="0 0 182 134" fill="none" xmlns="http://www.w3.org/2000/svg">
<path d="M79.849 91.9261L81.1705 93.2476L82.6269 91.7912L81.0363 90.4828L79.849 91.9261ZM41.2156 130.559L39.9411 131.926L41.261 133.157L42.5371 131.881L41.2156 130.559ZM2.31936 94.2914L0.496574 93.8788L0.259552 94.926L1.04484 95.6583L2.31936 94.2914ZM73.5415 3.0955L75.0828 2.03859L74.1758 0.715858L72.7308 1.41163L73.5415 3.0955ZM79.849 12.2939L81.0325 13.7404L82.3614 12.6531L81.3903 11.237L79.849 12.2939ZM58.824 32.5305L57.2276 31.5588L57.2252 31.5628L58.824 32.5305ZM58.0356 69.8498L56.4247 70.7974L56.4413 70.8256L56.4589 70.8532L58.0356 69.8498ZM178.404 91.9261L179.725 93.2476L181.182 91.7912L179.591 90.4828L178.404 91.9261ZM139.77 130.559L138.496 131.926L139.816 133.157L141.092 131.881L139.77 130.559ZM100.874 94.2914L99.0512 93.8788L98.8142 94.926L99.5995 95.6583L100.874 94.2914ZM172.096 3.0955L173.637 2.03859L172.73 0.715858L171.285 1.41163L172.096 3.0955ZM178.404 12.2939L179.587 13.7404L180.916 12.6531L179.945 11.237L178.404 12.2939ZM157.379 32.5305L155.782 31.5588L155.78 31.5628L157.379 32.5305ZM156.59 69.8498L154.979 70.7974L154.996 70.8256L155.014 70.8532L156.59 69.8498ZM78.5275 90.6046L39.8941 129.238L42.5371 131.881L81.1705 93.2476L78.5275 90.6046ZM42.4901 129.193L3.59388 92.9245L1.04484 95.6583L39.9411 131.926L42.4901 129.193ZM4.14214 94.7039C13.6585 52.659 37.0438 22.7427 74.3523 4.77937L72.7308 1.41163C34.3493 19.8916 10.2531 50.7726 0.496574 93.8788L4.14214 94.7039ZM72.0002 4.1524L78.3077 13.3508L81.3903 11.237L75.0828 2.03859L72.0002 4.1524ZM78.6656 10.8475C72.863 15.595 68.178 19.6818 64.6239 23.1025C61.0993 26.495 58.5862 29.3269 57.2276 31.5588L60.4204 33.5022C61.5148 31.7043 63.7323 29.1486 67.216 25.7955C70.6703 22.4707 75.2713 18.4541 81.0325 13.7404L78.6656 10.8475ZM57.2252 31.5628C53.0543 38.4537 50.9104 45.3548 50.9104 52.2414H54.6482C54.6482 46.1626 56.5341 39.9231 60.4229 33.4982L57.2252 31.5628ZM50.9104 52.2414C50.9104 58.4163 52.7847 64.6094 56.4247 70.7974L59.6464 68.9023C56.2781 63.1761 54.6482 57.6303 54.6482 52.2414H50.9104ZM56.4589 70.8532C60.3055 76.8979 67.7718 84.4115 78.6618 93.3694L81.0363 90.4828C70.2004 81.5694 63.1244 74.3655 59.6123 68.8465L56.4589 70.8532ZM177.082 90.6046L138.449 129.238L141.092 131.881L179.725 93.2476L177.082 90.6046ZM141.045 129.193L102.149 92.9245L99.5995 95.6583L138.496 131.926L141.045 129.193ZM102.697 94.7039C112.213 52.659 135.598 22.7427 172.907 4.77937L171.285 1.41163C132.904 19.8916 108.808 50.7726 99.0512 93.8788L102.697 94.7039ZM170.555 4.1524L176.862 13.3508L179.945 11.237L173.637 2.03859L170.555 4.1524ZM177.22 10.8475C171.418 15.595 166.733 19.6818 163.179 23.1025C159.654 26.495 157.141 29.3269 155.782 31.5588L158.975 33.5022C160.069 31.7043 162.287 29.1486 165.771 25.7955C169.225 22.4707 173.826 18.4541 179.587 13.7404L177.22 10.8475ZM155.78 31.5628C151.609 38.4537 149.465 45.3548 149.465 52.2414H153.203C153.203 46.1626 155.089 39.9231 158.977 33.4982L155.78 31.5628ZM149.465 52.2414C149.465 58.4163 151.339 64.6094 154.979 70.7974L158.201 68.9023C154.833 63.1761 153.203 57.6303 153.203 52.2414H149.465ZM155.014 70.8532C158.86 76.8979 166.326 84.4115 177.216 93.3694L179.591 90.4828C168.755 81.5694 161.679 74.3655 158.167 68.8465L155.014 70.8532Z" fill="#EABF77"/>
</svg>
