<svg xmlns="http://www.w3.org/2000/svg" xmlns:xlink="http://www.w3.org/1999/xlink" width="20" height="18" viewBox="0 0 20 18">
  <metadata><?xpacket begin="﻿" id="W5M0MpCehiHzreSzNTczkc9d"?>
<x:xmpmeta xmlns:x="adobe:ns:meta/" x:xmptk="Adobe XMP Core 5.6-c138 79.159824, 2016/09/14-01:09:01        ">
   <rdf:RDF xmlns:rdf="http://www.w3.org/1999/02/22-rdf-syntax-ns#">
      <rdf:Description rdf:about=""/>
   </rdf:RDF>
</x:xmpmeta>
                                                                                                    
                                                                                                    
                                                                                                    
                                                                                                    
                                                                                                    
                                                                                                    
                                                                                                    
                                                                                                    
                                                                                                    
                                                                                                    
                                                                                                    
                                                                                                    
                                                                                                    
                                                                                                    
                                                                                                    
                                                                                                    
                                                                                                    
                                                                                                    
                                                                                                    
                                                                                                    
                           
<?xpacket end="w"?></metadata>
<defs>
    <style>
      .cls-1 {
        fill: #4dd0e1;
        fill-rule: evenodd;
        filter: url(#filter);
      }
    </style>
    <filter id="filter" x="36.5" y="409" width="20" height="18" filterUnits="userSpaceOnUse">
      <feFlood result="flood" flood-color="#6b6b6b"/>
      <feComposite result="composite" operator="in" in2="SourceGraphic"/>
      <feBlend result="blend" in2="SourceGraphic"/>
    </filter>
  </defs>
  <path class="cls-1" d="M49,412a4.452,4.452,0,0,1,.121-1H36.5v2H49.121A4.452,4.452,0,0,1,49,412Zm0,12a4.452,4.452,0,0,1,.121-1H36.5v2H49.121A4.452,4.452,0,0,1,49,424Zm-10-6a4.446,4.446,0,0,1,.121-1H36.5v2h2.621A4.446,4.446,0,0,1,39,418Zm8.879-1a4.189,4.189,0,0,1,0,2H56.5v-2H47.879Zm5.621-8a3,3,0,1,0,3,3A3,3,0,0,0,53.5,409Zm-10,6a3,3,0,1,0,3,3A3,3,0,0,0,43.5,415Zm10,6a3,3,0,1,0,3,3A3,3,0,0,0,53.5,421Z" transform="translate(-36.5 -409)"/>
</svg>
