<svg width="383" height="721" viewBox="0 0 383 721" fill="none" xmlns="http://www.w3.org/2000/svg">
<path d="M225.021 59.1612L227.613 56.939L225.736 54.7482L223.262 56.2344L225.021 59.1612ZM236.545 72.6061L238.461 75.4325L241.626 73.2871L239.138 70.3839L236.545 72.6061ZM129.946 176.324L132.829 178.154L132.829 178.154L129.946 176.324ZM151.554 518.208L148.857 520.302L151.004 523.066L153.714 520.853L151.554 518.208ZM186.127 478.834L189.336 480L189.341 479.985L189.347 479.97L186.127 478.834ZM191.889 175.363L189.702 172.741L188.474 173.765V175.363H191.889ZM397.404 3.94116L398.653 0.76355L396.77 0.0228729L395.216 1.31902L397.404 3.94116ZM510.725 40.9146L510.025 44.2567L510.044 44.2606L510.062 44.2643L510.725 40.9146ZM618.764 49.0775L621.884 47.6908L620.983 45.663H618.764V49.0775ZM626.447 66.3638L628.808 68.83L630.542 67.1702L629.567 64.977L626.447 66.3638ZM547.218 142.231L546.852 145.626L548.432 145.797L549.579 144.698L547.218 142.231ZM366.192 83.6501L367.708 80.5902L362.724 78.1223L362.778 83.683L366.192 83.6501ZM371.474 632.009L368.06 632.042L368.091 635.336L371.384 635.423L371.474 632.009ZM389.721 632.489L389.631 635.903L389.676 635.904H389.721V632.489ZM515.526 608.961L514.226 605.803L514.217 605.807L515.526 608.961ZM633.649 532.613L636.022 530.158L633.776 527.986L631.414 530.032L633.649 532.613ZM648.055 546.538L650.817 548.545L652.561 546.145L650.428 544.083L648.055 546.538ZM560.183 642.093L558.068 639.412L558.06 639.418L558.053 639.424L560.183 642.093ZM456.945 696.833L458.025 700.072L458.036 700.068L458.048 700.064L456.945 696.833ZM170.281 674.264L168.637 677.257L168.645 677.261L170.281 674.264ZM66.5634 194.57L63.7706 192.606L63.7696 192.607L66.5634 194.57ZM344.584 80.769L347.999 80.7392L347.934 73.3664L342.353 78.1843L344.584 80.769ZM288.404 129.267L286.173 126.682L284.989 127.703V129.267H288.404ZM284.082 402.486L280.832 401.441L280.807 401.517L280.786 401.595L284.082 402.486ZM261.994 440.42L264.585 442.644L264.587 442.642L261.994 440.42ZM164.039 533.573L161.855 530.949L159.128 533.218L161.499 535.856L164.039 533.573ZM246.149 599.357L244.556 602.378L244.575 602.388L244.595 602.398L246.149 599.357ZM349.386 629.608L348.946 632.994L352.835 633.5L352.801 629.578L349.386 629.608ZM222.428 61.3834L233.953 74.8283L239.138 70.3839L227.613 56.939L222.428 61.3834ZM234.629 69.7797C186.663 102.294 150.749 137.181 127.064 174.494L132.829 178.154C155.88 141.84 191.033 107.582 238.461 75.4325L234.629 69.7797ZM127.064 174.493C96.6283 222.413 81.3954 274.586 81.3954 330.94H88.2246C88.2246 275.893 103.083 224.989 132.829 178.154L127.064 174.493ZM81.3954 330.94C81.3954 399.301 103.933 462.45 148.857 520.302L154.251 516.114C110.183 459.364 88.2246 397.668 88.2246 330.94H81.3954ZM153.714 520.853C172.95 505.143 185.149 491.514 189.336 480L182.918 477.667C179.422 487.281 168.572 499.901 149.394 515.563L153.714 520.853ZM189.347 479.97C191.443 474.029 192.897 463.505 193.856 448.805C194.823 433.974 195.303 414.525 195.303 390.481H188.474C188.474 414.456 187.995 433.74 187.041 448.36C186.079 463.111 184.652 472.754 182.907 477.697L189.347 479.97ZM195.303 390.481V175.363H188.474V390.481H195.303ZM194.076 177.986L399.591 6.56331L395.216 1.31902L189.702 172.741L194.076 177.986ZM396.154 7.11876C444.228 26.0282 482.213 38.4355 510.025 44.2567L511.424 37.5724C484.177 31.8695 446.613 19.6279 398.653 0.76355L396.154 7.11876ZM510.062 44.2643C537.867 49.7607 570.431 52.4921 607.72 52.4921V45.663C570.742 45.663 538.642 42.9525 511.387 37.5648L510.062 44.2643ZM607.72 52.4921H618.764V45.663H607.72V52.4921ZM615.644 50.4643L623.326 67.7506L629.567 64.977L621.884 47.6908L615.644 50.4643ZM624.085 63.8976L544.856 139.765L549.579 144.698L628.808 68.83L624.085 63.8976ZM547.584 138.836C494.648 133.131 434.703 113.769 367.708 80.5902L364.677 86.71C432.13 120.115 492.869 139.808 546.852 145.626L547.584 138.836ZM362.778 83.683L368.06 632.042L374.888 631.976L369.607 83.6172L362.778 83.683ZM371.384 635.423L389.631 635.903L389.811 629.076L371.564 628.596L371.384 635.423ZM389.721 635.904C436.21 635.904 478.598 627.993 516.836 612.114L514.217 605.807C476.908 621.3 435.425 629.075 389.721 629.075V635.904ZM516.826 612.118C555.347 596.257 595.032 570.579 635.885 535.194L631.414 530.032C590.957 565.073 551.893 590.294 514.226 605.803L516.826 612.118ZM631.276 535.068L645.681 548.993L650.428 544.083L636.022 530.158L631.276 535.068ZM645.292 544.531C615.641 585.341 586.559 616.935 558.068 639.412L562.297 644.774C591.427 621.794 620.927 589.685 650.817 548.545L645.292 544.531ZM558.053 639.424C529.917 661.869 495.867 679.942 455.842 693.601L458.048 700.064C498.693 686.193 533.467 667.773 562.312 644.762L558.053 639.424ZM455.865 693.593C415.854 706.93 376.204 713.585 336.902 713.585V720.415C376.988 720.415 417.367 713.625 458.025 700.072L455.865 693.593ZM336.902 713.585C278.578 713.585 223.599 699.487 171.917 671.268L168.645 677.261C221.321 706.023 277.423 720.415 336.902 720.415V713.585ZM171.925 671.272C120.647 643.1 80.4505 602.756 51.3033 550.165L45.3302 553.475C75.0844 607.162 116.198 648.448 168.637 677.257L171.925 671.272ZM51.3033 550.165C22.1107 497.491 7.55531 443.317 7.55531 387.6H0.72617C0.72617 444.565 15.6214 499.87 45.3302 553.475L51.3033 550.165ZM7.55531 387.6C7.55531 318.869 28.1281 255.206 69.3572 196.534L63.7696 192.607C21.7685 252.378 0.72617 317.402 0.72617 387.6H7.55531ZM69.3562 196.535C101.632 150.652 154.016 105.81 226.78 62.088L223.262 56.2344C150.053 100.224 96.7982 145.655 63.7706 192.606L69.3562 196.535ZM342.353 78.1843L286.173 126.682L290.635 131.851L346.816 83.3538L342.353 78.1843ZM284.989 129.267V348.226H291.819V129.267H284.989ZM284.989 348.226C284.989 375.516 283.523 393.068 280.832 401.441L287.333 403.531C290.404 393.977 291.819 375.356 291.819 348.226H284.989ZM280.786 401.595C277.763 412.781 270.731 424.98 259.402 438.197L264.587 442.642C276.306 428.969 284 415.88 287.379 403.377L280.786 401.595ZM259.404 438.195C236.206 465.207 203.711 496.122 161.855 530.949L166.223 536.198C208.237 501.24 241.046 470.052 264.585 442.644L259.404 438.195ZM161.499 535.856C187.335 564.598 215.015 586.796 244.556 602.378L247.742 596.337C219.021 581.188 191.961 559.529 166.578 531.291L161.499 535.856ZM244.595 602.398C274.456 617.653 309.259 627.832 348.946 632.994L349.827 626.222C310.765 621.141 276.742 611.152 247.702 596.317L244.595 602.398ZM352.801 629.578L347.999 80.7392L341.17 80.7989L345.972 629.638L352.801 629.578Z" fill="#EABF77"/>
</svg>
