<svg width="397" height="726" viewBox="0 0 397 726" fill="none" xmlns="http://www.w3.org/2000/svg">
<path d="M-28.4593 64.6414L-25.59 62.7903L-27.2727 60.182L-30.0291 61.6091L-28.4593 64.6414ZM-18.8558 79.5268L-17.0181 82.4047L-14.1267 80.5584L-15.9865 77.6756L-18.8558 79.5268ZM-136.498 196.689L-139.462 194.993L-139.466 195L-136.498 196.689ZM-107.688 523.208L-110.42 525.257L-108.271 528.122L-105.511 525.838L-107.688 523.208ZM-74.0758 484.794L-70.8786 485.993L-70.8727 485.977L-70.8668 485.961L-74.0758 484.794ZM-68.3137 183.244L-70.5305 180.647L-71.7283 181.67V183.244H-68.3137ZM141.522 4.13942L143.009 1.06544L141.002 0.0946579L139.306 1.54227L141.522 4.13942ZM239.958 43.5137L239.046 46.8043L239.056 46.8071L239.958 43.5137ZM369.125 50.2361L371.748 48.0502L370.525 46.5826L368.635 46.857L369.125 50.2361ZM381.129 64.6414L383.558 67.0419L385.737 64.8371L383.753 62.4554L381.129 64.6414ZM215.469 232.222L213.041 229.822L207.293 235.637H215.469V232.222ZM345.116 232.222L348.086 233.908L350.981 228.808H345.116V232.222ZM292.777 324.416V327.83H294.765L295.747 326.101L292.777 324.416ZM110.311 324.416V321.001H106.897V324.416H110.311ZM110.311 635.569H106.897V638.827L110.151 638.979L110.311 635.569ZM141.042 637.009L140.882 640.42L140.962 640.424H141.042V637.009ZM276.451 602.917L274.924 599.863L274.916 599.867L274.907 599.871L276.451 602.917ZM381.129 523.208L384.016 521.384L381.725 517.756L378.704 520.804L381.129 523.208ZM392.654 541.454L395.528 543.297L396.701 541.468L395.541 539.631L392.654 541.454ZM269.729 670.621L271.54 673.516L271.546 673.512L269.729 670.621ZM-179.234 607.719L-176.62 605.522L-176.621 605.52L-179.234 607.719ZM-224.37 253.83L-221.29 255.302L-221.285 255.294L-224.37 253.83ZM-136.498 136.187L-138.789 133.655L-138.797 133.662L-138.804 133.669L-136.498 136.187ZM88.2231 88.1699H91.6377V80.8644L86.0329 85.5503L88.2231 88.1699ZM29.6418 137.148L27.4517 134.528L26.2273 135.552V137.148H29.6418ZM25.3203 411.327L22.0497 410.346L22.0346 410.397L22.021 410.447L25.3203 411.327ZM6.59348 442.539L4.03735 440.275L4.01178 440.303L3.98685 440.333L6.59348 442.539ZM-95.2035 538.093L-97.3823 535.464L-100.189 537.791L-97.6844 540.439L-95.2035 538.093ZM-12.6135 603.877L-14.2112 606.895L-14.2039 606.899L-14.1966 606.903L-12.6135 603.877ZM88.2231 633.648L87.7593 637.031L91.6377 637.563V633.648H88.2231ZM272.13 142.43L274.562 144.826L279.311 140.006L272.613 139.049L272.13 142.43ZM189.06 125.143L188.038 128.402L188.045 128.404L188.052 128.406L189.06 125.143ZM110.311 92.0113L111.826 88.9509L106.897 86.5119V92.0113H110.311ZM110.311 306.649H106.897V314.979L112.743 309.046L110.311 306.649ZM-31.3285 66.4925L-21.725 81.3779L-15.9865 77.6756L-25.59 62.7903L-31.3285 66.4925ZM-20.6935 76.6489C-74.1888 110.809 -113.841 150.237 -139.462 194.993L-133.535 198.386C-108.578 154.79 -69.8013 116.11 -17.0181 82.4047L-20.6935 76.6489ZM-139.466 195C-164.727 239.368 -177.367 287.007 -177.367 337.861H-170.537C-170.537 288.197 -158.208 241.722 -133.531 198.379L-139.466 195ZM-177.367 337.861C-177.367 403.363 -154.975 465.85 -110.42 525.257L-104.956 521.159C-148.753 462.763 -170.537 401.685 -170.537 337.861H-177.367ZM-105.511 525.838C-86.9141 510.448 -75.0632 497.152 -70.8786 485.993L-77.273 483.595C-80.7713 492.924 -91.3284 505.237 -109.865 520.577L-105.511 525.838ZM-70.8668 485.961C-68.7664 480.185 -67.3086 470.39 -66.3483 456.947C-65.3798 443.388 -64.8992 425.772 -64.8992 404.125H-71.7283C-71.7283 425.693 -72.2079 443.13 -73.1601 456.46C-74.1206 469.907 -75.5438 478.839 -77.2848 483.627L-70.8668 485.961ZM-64.8992 404.125V183.244H-71.7283V404.125H-64.8992ZM-66.0969 185.842L143.739 6.73656L139.306 1.54227L-70.5305 180.647L-66.0969 185.842ZM140.036 7.21339C179.183 26.1451 212.2 39.365 239.046 46.8043L240.87 40.2231C214.577 32.9371 181.971 19.9075 143.009 1.06544L140.036 7.21339ZM239.056 46.8071C266.218 54.2442 292.931 57.9723 319.187 57.9723V51.1431C293.584 51.1431 267.478 47.5086 240.86 40.2204L239.056 46.8071ZM319.187 57.9723C332.855 57.9723 349.677 56.5097 369.616 53.6153L368.635 46.857C348.879 49.7247 332.409 51.1431 319.187 51.1431V57.9723ZM366.502 52.4221L378.506 66.8273L383.753 62.4554L371.748 48.0502L366.502 52.4221ZM378.701 62.2409L213.041 229.822L217.898 234.623L383.558 67.0419L378.701 62.2409ZM215.469 235.637H345.116V228.808H215.469V235.637ZM342.147 230.536L289.808 322.73L295.747 326.101L348.086 233.908L342.147 230.536ZM292.777 321.001H110.311V327.83H292.777V321.001ZM106.897 324.416V635.569H113.726V324.416H106.897ZM110.151 638.979L140.882 640.42L141.202 633.598L110.471 632.158L110.151 638.979ZM141.042 640.424C187.09 640.424 232.752 628.907 277.996 605.962L274.907 599.871C230.518 622.383 185.907 633.595 141.042 633.595V640.424ZM277.978 605.971C312.336 588.792 347.523 561.964 383.555 525.612L378.704 520.804C343.029 556.798 308.432 583.109 274.924 599.863L277.978 605.971ZM378.242 525.031L389.767 543.278L395.541 539.631L384.016 521.384L378.242 525.031ZM389.779 539.612C352.838 597.252 312.195 639.895 267.912 667.73L271.546 673.512C316.895 645.007 358.202 601.539 395.528 543.297L389.779 539.612ZM267.918 667.727C213.767 701.61 151.983 718.585 82.461 718.585V725.415C153.15 725.415 216.211 708.137 271.54 673.516L267.918 667.727ZM82.461 718.585C-27.0955 718.585 -113.322 680.847 -176.62 605.522L-181.848 609.915C-117.1 686.966 -28.8627 725.415 82.461 725.415V718.585ZM-176.621 605.52C-226.986 545.653 -252.167 475.531 -252.167 395.001H-258.996C-258.996 477.09 -233.279 548.78 -181.847 609.917L-176.621 605.52ZM-252.167 395.001C-252.167 344.907 -241.867 298.356 -221.29 255.302L-227.451 252.358C-248.489 296.375 -258.996 343.939 -258.996 395.001H-252.167ZM-221.285 255.294C-200.677 211.858 -171.659 172.997 -134.193 138.706L-138.804 133.669C-176.885 168.522 -206.448 208.09 -227.455 252.366L-221.285 255.294ZM-134.208 138.719C-107.603 114.649 -71.8606 90.9566 -26.8893 67.6737L-30.0291 61.6091C-75.3307 85.0631 -111.614 109.068 -138.789 133.655L-134.208 138.719ZM86.0329 85.5503L27.4517 134.528L31.832 139.767L90.4133 90.7896L86.0329 85.5503ZM26.2273 137.148V359.949H33.0564V137.148H26.2273ZM26.2273 359.949C26.2273 384.609 24.7708 401.276 22.0497 410.346L28.5909 412.308C31.6318 402.172 33.0564 384.586 33.0564 359.949H26.2273ZM22.021 410.447C19.6485 419.344 13.7718 429.284 4.03735 440.275L9.14957 444.803C19.2624 433.385 25.8702 422.517 28.6195 412.207L22.021 410.447ZM3.98685 440.333C-16.9445 465.07 -50.6929 496.77 -97.3823 535.464L-93.0246 540.722C-46.2401 501.949 -12.1239 469.945 9.2001 444.744L3.98685 440.333ZM-97.6844 540.439C-69.6547 570.08 -41.8356 592.27 -14.2112 606.895L-11.0159 600.859C-37.8112 586.674 -65.0521 565.008 -92.7225 535.747L-97.6844 540.439ZM-14.1966 606.903C13.7678 621.535 47.7814 631.55 87.7593 637.031L88.6869 630.265C49.2759 624.862 16.0652 615.03 -11.0304 600.852L-14.1966 606.903ZM91.6377 633.648V88.1699H84.8085V633.648H91.6377ZM272.613 139.049C239.101 134.262 211.602 128.531 190.067 121.881L188.052 128.406C210.053 135.2 237.934 140.994 271.647 145.81L272.613 139.049ZM190.081 121.885C168.867 115.236 142.793 104.275 111.826 88.9509L108.797 95.0717C139.932 110.479 166.357 121.606 188.038 128.402L190.081 121.885ZM106.897 92.0113V306.649H113.726V92.0113H106.897ZM112.743 309.046L274.562 144.826L269.698 140.033L107.879 304.253L112.743 309.046Z" fill="#EABF77"/>
</svg>
