<svg width="402" height="744" viewBox="0 0 402 744" fill="none" xmlns="http://www.w3.org/2000/svg">
<path d="M544.645 4.53593L547.699 3.00889L546.555 0.720131L544.037 1.17597L544.645 4.53593ZM552.808 20.8619L553.775 24.1367L557.686 22.9821L555.862 19.3348L552.808 20.8619ZM483.183 60.7163L485.87 62.8236L485.88 62.811L485.889 62.7982L483.183 60.7163ZM486.544 310.407L483.179 310.984L483.179 310.986L486.544 310.407ZM508.152 444.856L504.761 445.258L504.762 445.265L508.152 444.856ZM483.183 630.683L486.167 632.344L486.173 632.332L483.183 630.683ZM204.202 700.789L205.228 697.532L205.218 697.529L205.207 697.526L204.202 700.789ZM53.9072 694.546L55.904 697.316L55.925 697.301L55.9457 697.286L53.9072 694.546ZM23.176 739.203L21.9223 742.379L25.2592 743.696L26.4101 740.298L23.176 739.203ZM4.92941 732L1.62097 731.155L0.876501 734.071L3.6757 735.176L4.92941 732ZM87.0392 616.278L85.5982 613.182L85.5878 613.187L85.5775 613.192L87.0392 616.278ZM239.735 577.864L237.32 575.45L237.305 575.464L237.291 575.48L239.735 577.864ZM225.81 389.156L223.088 391.217L223.089 391.219L225.81 389.156ZM128.814 364.667L130.083 367.837L130.105 367.828L130.128 367.819L128.814 364.667ZM83.1978 392.517L81.0208 395.147L83.071 396.844L85.2171 395.27L83.1978 392.517ZM69.2728 380.993L66.3305 379.26L64.8537 381.768L67.0957 383.623L69.2728 380.993ZM128.814 316.169L130.642 319.053L130.657 319.044L130.671 319.035L128.814 316.169ZM224.849 294.561L224.679 297.972L228.198 298.147L228.263 294.624L224.849 294.561ZM246.937 166.355L243.788 165.035L243.785 165.042L243.782 165.05L246.937 166.355ZM326.646 51.1128L329.18 53.4023L325.171 48.0333L326.646 51.1128ZM253.66 83.7647L254.65 87.0325L254.695 87.0189L254.739 87.004L253.66 83.7647ZM175.871 83.2845L175.246 86.6413L175.256 86.6431L175.871 83.2845ZM59.1891 139.945L58.4857 143.286L62.0314 144.033L62.5663 140.449L59.1891 139.945ZM40.9425 136.104L37.5673 135.587L37.0783 138.78L40.239 139.445L40.9425 136.104ZM75.515 52.5534L72.9597 50.2885L72.9512 50.2981L72.9428 50.3077L75.515 52.5534ZM219.567 16.0601L218.813 19.3904L218.836 19.3955L218.859 19.4004L219.567 16.0601ZM390.99 4.53593L393.576 2.30642L391.878 0.336861L389.528 1.45005L390.99 4.53593ZM402.994 18.461L405.158 21.1026L407.867 18.8837L405.58 16.2315L402.994 18.461ZM332.888 101.531L329.8 100.076L329.793 100.09L329.786 100.105L332.888 101.531ZM316.563 288.799L319.968 288.556L319.965 288.513L319.961 288.47L316.563 288.799ZM329.047 376.191L332.424 375.686L332.423 375.676L332.421 375.665L329.047 376.191ZM309.84 583.626L312.127 586.162L312.135 586.155L312.142 586.148L309.84 583.626ZM230.131 617.238L229.434 613.896L222.71 615.299L227.887 619.812L230.131 617.238ZM308.4 678.22L306.769 681.221L306.783 681.228L306.796 681.235L308.4 678.22ZM407.796 667.176L405.331 664.813L405.33 664.814L407.796 667.176ZM408.756 434.772L412.122 434.196L412.12 434.186L408.756 434.772ZM402.034 102.011L398.951 100.542L398.948 100.55L398.944 100.557L402.034 102.011ZM460.135 34.3067L458.208 31.4875L458.2 31.493L460.135 34.3067ZM541.591 6.06297L549.754 22.3889L555.862 19.3348L547.699 3.00889L541.591 6.06297ZM551.841 17.587C517.957 27.591 493.928 41.1478 480.477 58.6344L485.889 62.7982C498.048 46.9927 520.435 33.9799 553.775 24.1367L551.841 17.587ZM480.496 58.6091C467.081 75.7133 460.561 98.6267 460.561 126.98H467.391C467.391 99.6338 473.676 78.3712 485.87 62.8236L480.496 58.6091ZM460.561 126.98C460.561 161.88 468.136 223.288 483.179 310.984L489.91 309.83C474.862 222.103 467.391 161.226 467.391 126.98H460.561ZM483.179 310.986C495.349 381.761 502.533 426.479 504.761 445.258L511.543 444.453C509.289 425.459 502.069 380.545 489.909 309.828L483.179 310.986ZM504.762 445.265C506.985 463.686 508.099 482.916 508.099 502.957H514.928C514.928 482.663 513.8 463.159 511.542 444.447L504.762 445.265ZM508.099 502.957C508.099 553.447 498.73 595.417 480.193 629.034L486.173 632.332C505.41 597.445 514.928 554.263 514.928 502.957H508.099ZM480.199 629.023C461.579 662.477 437.852 686.768 409.072 702.096L412.282 708.124C442.403 692.081 467.014 666.754 486.167 632.344L480.199 629.023ZM409.072 702.096C379.933 717.616 353.761 725.224 330.488 725.224V732.053C355.232 732.053 382.519 723.976 412.282 708.124L409.072 702.096ZM330.488 725.224C305.781 725.224 264.139 716.102 205.228 697.532L203.175 704.045C262.067 722.609 304.616 732.053 330.488 732.053V725.224ZM205.207 697.526C158.483 683.124 124.744 675.766 104.325 675.766V682.595C123.601 682.595 156.446 689.643 203.196 704.052L205.207 697.526ZM104.325 675.766C83.8634 675.766 66.3121 681.059 51.8687 691.807L55.9457 697.286C69.0323 687.547 85.0931 682.595 104.325 682.595V675.766ZM51.9103 691.777C37.4452 702.205 26.8382 717.747 19.9419 738.107L26.4101 740.298C32.9588 720.964 42.8392 706.735 55.904 697.316L51.9103 691.777ZM24.4298 736.027L6.18313 728.824L3.6757 735.176L21.9223 742.379L24.4298 736.027ZM8.23785 732.845C15.8591 702.995 25.7959 680.098 37.9121 663.943L32.4487 659.846C19.5958 676.983 9.36526 700.823 1.62097 731.155L8.23785 732.845ZM37.9121 663.943C54.0158 642.472 70.8992 627.702 88.501 619.364L85.5775 613.192C66.6859 622.141 48.9968 637.782 32.4487 659.846L37.9121 663.943ZM88.4803 619.374C106.466 611.001 132.848 605.753 167.894 603.842L167.523 597.023C132.143 598.953 104.746 604.269 85.5982 613.182L88.4803 619.374ZM167.894 603.842C203.272 601.912 228.425 594.346 242.179 580.249L237.291 575.48C225.435 587.632 202.571 595.111 167.523 597.023L167.894 603.842ZM242.149 580.279C255.867 566.561 262.356 545.161 262.356 516.882H255.527C255.527 544.303 249.212 563.558 237.32 575.45L242.149 580.279ZM262.356 516.882C262.356 460.491 251.252 417.058 228.53 387.092L223.089 391.219C244.543 419.514 255.527 461.232 255.527 516.882H262.356ZM228.531 387.094C211.887 365.124 189.757 354.049 162.427 354.049V360.879C187.595 360.879 207.72 370.932 223.088 391.217L228.531 387.094ZM162.427 354.049C151.03 354.049 139.381 356.565 127.501 361.515L130.128 367.819C141.296 363.165 152.055 360.879 162.427 360.879V354.049ZM127.546 361.496C115.927 366.144 100.439 375.639 81.1786 389.763L85.2171 395.27C104.371 381.224 119.293 372.153 130.083 367.837L127.546 361.496ZM85.3748 389.886L71.4498 378.362L67.0957 383.623L81.0208 395.147L85.3748 389.886ZM72.2151 382.725C88.9717 354.271 108.469 333.107 130.642 319.053L126.986 313.285C103.703 328.042 83.5061 350.094 66.3305 379.26L72.2151 382.725ZM130.671 319.035C152.78 304.711 178.688 297.496 208.523 297.496V290.666C177.537 290.666 150.305 298.177 126.958 313.303L130.671 319.035ZM208.523 297.496C212.93 297.496 218.311 297.653 224.679 297.972L225.02 291.151C218.583 290.829 213.08 290.666 208.523 290.666V297.496ZM228.263 294.624C229.219 242.697 236.546 200.423 250.093 167.659L243.782 165.05C229.798 198.871 222.4 242.068 221.435 294.498L228.263 294.624ZM250.087 167.674C263.961 134.566 290.248 96.4818 329.18 53.4023L324.113 48.8234C284.936 92.1752 258.084 130.919 243.788 165.035L250.087 167.674ZM325.171 48.0333C287.012 66.3112 262.897 77.0863 252.58 80.5253L254.739 87.004C265.55 83.4005 290.093 72.4077 328.121 54.1924L325.171 48.0333ZM252.669 80.4969C242.458 83.5914 231.43 85.1519 219.567 85.1519V91.981C232.033 91.981 243.734 90.3403 254.65 87.0325L252.669 80.4969ZM219.567 85.1519C209.964 85.1519 195.646 83.4384 176.487 79.9259L175.256 86.6431C194.511 90.1732 209.324 91.981 219.567 91.981V85.1519ZM176.497 79.9278C157.566 76.3981 143.067 74.588 133.136 74.588V81.4172C142.412 81.4172 156.404 83.1283 175.246 86.6413L176.497 79.9278ZM133.136 74.588C110.278 74.588 92.2481 79.6437 79.5644 90.2707L83.9502 95.5053C94.9551 86.2851 111.177 81.4172 133.136 81.4172V74.588ZM79.5644 90.2707C66.863 100.912 59.0868 117.499 55.8119 139.441L62.5663 140.449C65.6937 119.495 72.963 104.711 83.9502 95.5053L79.5644 90.2707ZM59.8925 136.604L41.6459 132.762L40.239 139.445L58.4857 143.286L59.8925 136.604ZM44.3177 136.621C49.6943 101.515 61.03 74.3373 78.0873 54.799L72.9428 50.3077C54.7873 71.104 43.0747 99.6268 37.5673 135.587L44.3177 136.621ZM78.0703 54.8183C102.313 27.4674 134.789 13.7126 175.871 13.7126V6.88345C133.084 6.88345 98.655 21.2989 72.9597 50.2885L78.0703 54.8183ZM175.871 13.7126C187.7 13.7126 201.998 15.5832 218.813 19.3904L220.321 12.7298C203.204 8.8542 188.372 6.88345 175.871 6.88345V13.7126ZM218.859 19.4004C250.682 26.1508 277.665 29.5583 299.756 29.5583V22.7292C278.312 22.7292 251.836 19.4144 220.276 12.7199L218.859 19.4004ZM299.756 29.5583C316.906 29.5583 332.052 28.1032 345.162 25.1535L343.663 18.4909C331.164 21.3033 316.54 22.7292 299.756 22.7292V29.5583ZM345.162 25.1535C358.307 22.196 374.085 16.3217 392.451 7.62181L389.528 1.45005C371.401 10.0364 356.128 15.6863 343.663 18.4909L345.162 25.1535ZM388.403 6.76544L400.408 20.6905L405.58 16.2315L393.576 2.30642L388.403 6.76544ZM400.83 15.8194C366.976 43.5475 343.211 71.6176 329.8 100.076L335.977 102.987C348.816 75.7444 371.787 48.4344 405.158 21.1026L400.83 15.8194ZM329.786 100.105C316.684 128.601 310.267 168.384 310.267 219.174H317.096C317.096 168.807 323.483 130.161 335.991 102.958L329.786 100.105ZM310.267 219.174C310.267 245.82 311.23 269.143 313.164 289.128L319.961 288.47C318.054 268.761 317.096 245.667 317.096 219.174H310.267ZM313.157 289.042C313.81 298.186 318.003 327.501 325.673 376.717L332.421 375.665C324.725 326.285 320.596 297.339 319.968 288.556L313.157 289.042ZM325.67 376.696C334.962 438.854 339.558 479.409 339.558 498.635H346.387C346.387 478.808 341.699 437.733 332.424 375.686L325.67 376.696ZM339.558 498.635C339.558 534.397 328.765 561.723 307.538 581.105L312.142 586.148C335.092 565.194 346.387 535.86 346.387 498.635H339.558ZM307.553 581.091C291.891 595.217 266.024 606.259 229.434 613.896L230.829 620.581C267.865 612.852 295.137 601.486 312.127 586.162L307.553 581.091ZM227.887 619.812C265.295 652.424 291.659 673.009 306.769 681.221L310.03 675.22C295.689 667.426 269.875 647.357 232.375 614.665L227.887 619.812ZM306.796 681.235C322.269 689.465 337.861 693.639 353.536 693.639V686.81C339.12 686.81 324.621 682.981 310.003 675.206L306.796 681.235ZM353.536 693.639C375.906 693.639 394.886 685.583 410.261 669.539L405.33 664.814C391.255 679.502 374.061 686.81 353.536 686.81V693.639ZM410.26 669.54C426.006 653.123 433.778 631.903 433.778 606.194H426.949C426.949 630.424 419.676 649.858 405.331 664.813L410.26 669.54ZM433.778 606.194C433.778 575.769 426.521 518.35 412.122 434.196L405.39 435.348C419.802 519.575 426.949 576.438 426.949 606.194H433.778ZM412.12 434.186C394.84 334.987 386.241 260.961 386.241 211.971H379.412C379.412 261.578 388.099 336.085 405.392 435.358L412.12 434.186ZM386.241 211.971C386.241 166.135 392.616 130.043 405.123 103.465L398.944 100.557C385.842 128.4 379.412 165.614 379.412 211.971H386.241ZM405.116 103.481C417.978 76.5025 436.944 54.394 462.069 37.1205L458.2 31.493C432.107 49.4322 412.339 72.4601 398.951 100.542L405.116 103.481ZM462.061 37.126C480.7 24.3892 508.334 14.5797 545.254 7.89589L544.037 1.17597C506.69 7.93707 477.983 17.9748 458.208 31.4875L462.061 37.126Z" fill="#EABF77"/>
</svg>
