<svg width="308" height="857" viewBox="0 0 308 857" fill="none" xmlns="http://www.w3.org/2000/svg">
<path d="M-54.332 4.8222V1.40764H-57.7466V4.8222H-54.332ZM-32.244 4.8222H-28.8294V1.40764H-32.244V4.8222ZM-32.244 91.7337H-35.6586V98.0438L-30.3762 94.5922L-32.244 91.7337ZM100.764 4.8222L102.585 1.93359L100.731 0.764984L98.8965 1.96376L100.764 4.8222ZM240.495 107.099L238.081 109.514L238.088 109.521L238.096 109.529L240.495 107.099ZM291.393 179.125L288.178 180.274L288.185 180.294L288.193 180.314L291.393 179.125ZM303.878 583.912L306.143 586.468L307.293 585.449V583.912H303.878ZM155.984 715L154.698 718.163L156.663 718.962L158.249 717.555L155.984 715ZM-32.244 665.542L-31.9763 662.138L-35.6586 661.848V665.542H-32.244ZM-32.244 853.29V856.705H-28.8294V853.29H-32.244ZM-211.349 853.29H-214.764V856.705H-211.349V853.29ZM-211.349 656.899H-207.934V653.273L-211.554 653.49L-211.349 656.899ZM-425.027 733.727L-427.666 735.893L-425.53 738.497L-422.897 736.396L-425.027 733.727ZM-440.392 715L-442.906 712.689L-444.914 714.873L-443.032 717.166L-440.392 715ZM-211.349 571.908L-210.666 575.254L-207.914 574.692L-207.935 571.883L-211.349 571.908ZM-228.155 467.23L-231.315 468.524L-231.312 468.531L-231.309 468.538L-228.155 467.23ZM-287.217 395.204L-289.29 397.917L-289.28 397.925L-289.27 397.932L-287.217 395.204ZM-396.216 344.786H-399.631V347.405L-397.1 348.084L-396.216 344.786ZM-396.216 324.618L-397.726 321.556L-399.631 322.495V324.618H-396.216ZM-335.714 290.526L-333.844 293.383L-333.84 293.38L-335.714 290.526ZM-211.349 208.896L-209.475 211.751L-207.934 210.739V208.896H-211.349ZM-220.472 106.619L-223.628 107.923L-223.623 107.935L-223.618 107.947L-220.472 106.619ZM-383.732 80.2096L-386.348 82.4038L-384.475 84.6374L-381.975 83.1375L-383.732 80.2096ZM-396.216 65.3242L-398.54 62.822L-400.919 65.031L-398.832 67.5184L-396.216 65.3242ZM-330.432 19.7076L-329.037 22.824L-329.026 22.8193L-329.016 22.8146L-330.432 19.7076ZM-179.177 23.549L-180.769 26.5697L-180.745 26.5825L-180.721 26.5949L-179.177 23.549ZM-128.279 69.6457L-131.29 71.2553L-131.274 71.2865L-131.256 71.3173L-128.279 69.6457ZM-111.953 144.073L-115.367 144.142L-115.239 150.41L-110.043 146.903L-111.953 144.073ZM-54.332 105.179L-52.4217 108.009L-50.9174 106.993V105.179H-54.332ZM-32.244 272.759H-35.6586V274.587L-34.1381 275.601L-32.244 272.759ZM30.1786 305.891L29.0637 309.119L29.0726 309.122L29.0816 309.125L30.1786 305.891ZM144.46 305.891L143.38 302.652L143.372 302.655L143.363 302.658L144.46 305.891ZM208.323 272.759L210.2 275.612L211.759 274.586L211.738 272.72L208.323 272.759ZM144.46 145.033L142.303 147.68L142.311 147.687L142.319 147.693L144.46 145.033ZM29.6985 75.4078L31.2255 72.3537L29.4532 71.4676L27.8044 72.5667L29.6985 75.4078ZM-32.244 116.703L-34.1381 113.862L-35.6586 114.875V116.703H-32.244ZM-54.332 131.108H-50.9174V124.728L-56.2261 128.267L-54.332 131.108ZM-111.953 169.522L-113.847 166.681L-115.367 167.695V169.522H-111.953ZM-111.953 832.163H-115.367V835.577H-111.953V832.163ZM-54.332 832.163V835.577H-50.9174V832.163H-54.332ZM-211.349 235.786H-207.934V229.438L-213.231 232.937L-211.349 235.786ZM-316.027 304.931L-317.909 302.082L-323.129 305.53L-317.405 308.055L-316.027 304.931ZM-260.327 335.662L-262.3 338.449L-262.281 338.462L-262.261 338.476L-260.327 335.662ZM-211.349 377.918L-213.786 380.31L-207.934 386.269V377.918H-211.349ZM-32.244 447.063H-35.6586V452.838L-30.5984 450.055L-32.244 447.063ZM33.0597 417.772L32.0838 414.5L32.0758 414.502L32.0678 414.505L33.0597 417.772ZM143.02 417.772L141.994 421.029L142.03 421.04L142.066 421.051L143.02 417.772ZM208.323 447.063L206.665 450.048L211.738 452.866V447.063H208.323ZM208.323 297.729H211.738V291.809L206.614 294.773L208.323 297.729ZM141.579 328.94L142.533 332.219L142.552 332.213L142.571 332.207L141.579 328.94ZM29.2183 329.42L28.2719 332.701L29.2183 329.42ZM-32.244 301.09L-30.5332 298.135L-35.6586 295.167V301.09H-32.244ZM-32.244 571.908H-35.6586V575.209L-32.3597 575.321L-32.244 571.908ZM79.1564 588.714L78.2604 592.009L78.2775 592.014L78.2946 592.018L79.1564 588.714ZM208.323 638.172L206.861 641.258L211.738 643.569V638.172H208.323ZM208.323 474.433H211.738V472.625L210.243 471.609L208.323 474.433ZM145.901 441.301L144.786 444.528L144.812 444.537L144.839 444.546L145.901 441.301ZM31.139 441.301L32.2011 444.546L32.2186 444.54L32.2361 444.534L31.139 441.301ZM-32.244 474.433L-34.1295 471.586L-35.6586 472.599V474.433H-32.244ZM-54.332 8.23679H-32.244V1.40764H-54.332V8.23679ZM-35.6586 4.8222V91.7337H-28.8294V4.8222H-35.6586ZM-30.3762 94.5922L102.632 7.68065L98.8965 1.96376L-34.1118 88.8753L-30.3762 94.5922ZM98.9435 7.71082C166.467 50.2728 212.761 84.1948 238.081 109.514L242.909 104.685C217.01 78.7853 170.151 44.5225 102.585 1.93359L98.9435 7.71082ZM238.096 109.529C263.836 134.951 280.415 158.537 288.178 180.274L294.609 177.977C286.367 154.898 269.013 130.466 242.894 104.67L238.096 109.529ZM288.193 180.314C296.302 202.148 300.463 234.635 300.463 278.041H307.293C307.293 234.377 303.131 200.919 294.594 177.937L288.193 180.314ZM300.463 278.041V583.912H307.293V278.041H300.463ZM301.613 581.357L153.719 712.445L158.249 717.555L306.143 586.468L301.613 581.357ZM157.27 711.837C117.808 695.795 83.5615 684.052 54.5527 676.639L52.8618 683.256C81.4738 690.568 115.412 702.193 154.698 718.163L157.27 711.837ZM54.5527 676.639C25.5604 669.23 -3.28326 664.395 -31.9763 662.138L-32.5117 668.946C-4.22406 671.171 24.2331 675.939 52.8618 683.256L54.5527 676.639ZM-35.6586 665.542V853.29H-28.8294V665.542H-35.6586ZM-32.244 849.876H-211.349V856.705H-32.244V849.876ZM-207.934 853.29V656.899H-214.764V853.29H-207.934ZM-211.554 653.49C-259.771 656.383 -299.822 663.624 -331.61 675.302L-329.255 681.712C-298.3 670.341 -258.962 663.176 -211.145 660.307L-211.554 653.49ZM-331.61 675.302C-363.39 686.976 -395.237 705.587 -427.156 731.058L-422.897 736.396C-391.433 711.288 -360.218 693.086 -329.255 681.712L-331.61 675.302ZM-422.387 731.561L-437.752 712.834L-443.032 717.166L-427.666 735.893L-422.387 731.561ZM-437.879 717.311C-394.104 669.702 -356.586 636.524 -325.301 617.564L-328.841 611.723C-360.939 631.177 -398.969 664.903 -442.906 712.689L-437.879 717.311ZM-325.301 617.564C-294.017 598.604 -255.831 584.477 -210.666 575.254L-212.032 568.563C-257.78 577.905 -296.742 592.27 -328.841 611.723L-325.301 617.564ZM-207.935 571.883C-208.256 528.117 -213.883 492.736 -225.001 465.922L-231.309 468.538C-220.659 494.223 -215.082 528.628 -214.763 571.933L-207.935 571.883ZM-224.995 465.936C-236.163 438.675 -256.3 414.205 -285.163 392.476L-289.27 397.932C-261.153 419.099 -241.916 442.646 -231.315 468.524L-224.995 465.936ZM-285.144 392.491C-314.071 370.389 -350.839 353.417 -395.332 341.488L-397.1 348.084C-353.241 359.843 -317.343 376.483 -289.29 397.917L-285.144 392.491ZM-392.802 344.786V324.618H-399.631V344.786H-392.802ZM-394.706 327.681C-371.878 316.428 -351.587 304.996 -333.844 293.383L-337.584 287.669C-355.054 299.104 -375.098 310.401 -397.726 321.556L-394.706 327.681ZM-333.84 293.38L-209.475 211.751L-213.223 206.042L-337.588 287.671L-333.84 293.38ZM-207.934 208.896V175.284H-214.764V208.896H-207.934ZM-207.934 175.284C-207.934 143.823 -210.965 120.357 -217.327 105.291L-223.618 107.947C-217.815 121.691 -214.764 144.002 -214.764 175.284H-207.934ZM-217.316 105.316C-223.742 89.7594 -235.698 77.0682 -252.858 67.1683L-256.271 73.0836C-240.139 82.3906 -229.367 94.0282 -223.628 107.923L-217.316 105.316ZM-252.858 67.1683C-270.049 57.2504 -289.049 52.3061 -309.785 52.3061V59.1353C-290.186 59.1353 -272.372 63.7944 -256.271 73.0836L-252.858 67.1683ZM-309.785 52.3061C-332.705 52.3061 -357.967 60.7685 -385.488 77.2816L-381.975 83.1375C-355.077 66.9987 -331.041 59.1353 -309.785 59.1353V52.3061ZM-381.115 78.0153L-393.6 63.1299L-398.832 67.5184L-386.348 82.4038L-381.115 78.0153ZM-393.893 67.8263C-371.68 47.2006 -350.059 32.2368 -329.037 22.824L-331.828 16.5912C-353.701 26.3854 -375.936 41.8326 -398.54 62.822L-393.893 67.8263ZM-329.016 22.8146C-307.734 13.1127 -284.215 8.23679 -258.406 8.23679V1.40764C-285.096 1.40764 -309.594 6.45534 -331.849 16.6007L-329.016 22.8146ZM-258.406 8.23679C-229.78 8.23679 -203.925 14.3661 -180.769 26.5697L-177.585 20.5283C-201.807 7.76279 -228.771 1.40764 -258.406 1.40764V8.23679ZM-180.721 26.5949C-157.163 38.5307 -140.802 53.4589 -131.29 71.2553L-125.267 68.0362C-135.603 48.6991 -153.174 32.8961 -177.634 20.5031L-180.721 26.5949ZM-131.256 71.3173C-121.391 88.8897 -116.001 113.075 -115.367 144.142L-108.539 144.003C-109.185 112.328 -114.679 86.895 -125.301 67.9742L-131.256 71.3173ZM-110.043 146.903L-52.4217 108.009L-56.2424 102.348L-113.863 141.243L-110.043 146.903ZM-50.9174 105.179V4.8222H-57.7466V105.179H-50.9174ZM-34.1381 275.601C-10.0041 291.69 11.0752 302.905 29.0637 309.119L31.2936 302.664C14.0693 296.714 -6.46646 285.841 -30.3499 269.918L-34.1381 275.601ZM29.0816 309.125C47.3839 315.335 66.8034 318.429 87.3194 318.429V311.6C67.5007 311.6 48.8264 308.613 31.2758 302.658L29.0816 309.125ZM87.3194 318.429C107.835 318.429 127.255 315.335 145.557 309.125L143.363 302.658C125.812 308.613 107.138 311.6 87.3194 311.6V318.429ZM145.54 309.131C164.172 302.92 185.737 291.706 210.2 275.612L206.447 269.907C182.252 285.824 161.241 296.699 143.38 302.652L145.54 309.131ZM211.738 272.72C211.414 244.895 207.209 221.517 198.966 202.723L192.712 205.466C200.474 223.165 204.592 245.564 204.909 272.799L211.738 272.72ZM198.966 202.723C190.64 183.739 173.02 163.637 146.601 142.373L142.319 147.693C168.4 168.685 185.032 187.956 192.712 205.466L198.966 202.723ZM146.617 142.386C120.406 121.028 81.8971 97.6895 31.2255 72.3537L28.1714 78.4619C78.6566 103.704 116.656 126.782 142.303 147.68L146.617 142.386ZM27.8044 72.5667L-34.1381 113.862L-30.3499 119.544L31.5926 78.2489L27.8044 72.5667ZM-35.6586 116.703V272.759H-28.8294V116.703H-35.6586ZM-56.2261 128.267L-113.847 166.681L-110.059 172.363L-52.438 133.949L-56.2261 128.267ZM-115.367 169.522V832.163H-108.538V169.522H-115.367ZM-111.953 835.577H-54.332V828.748H-111.953V835.577ZM-50.9174 832.163V131.108H-57.7466V832.163H-50.9174ZM-213.231 232.937L-317.909 302.082L-314.145 307.78L-209.467 238.635L-213.231 232.937ZM-317.405 308.055C-295.795 317.589 -277.438 327.726 -262.3 338.449L-258.353 332.876C-273.947 321.831 -292.724 311.48 -314.649 301.807L-317.405 308.055ZM-262.261 338.476C-247.123 348.883 -230.964 362.813 -213.786 380.31L-208.912 375.525C-226.306 357.81 -242.799 343.569 -258.392 332.849L-262.261 338.476ZM-207.934 377.918V235.786H-214.764V377.918H-207.934ZM-30.5984 450.055C-5.09525 436.028 16.441 426.385 34.0516 421.039L32.0678 414.505C13.8253 420.043 -8.17413 429.927 -33.8896 444.071L-30.5984 450.055ZM34.0356 421.044C51.9681 415.696 70.2063 413.024 88.7599 413.024V406.195C69.5399 406.195 50.6445 408.964 32.0838 414.5L34.0356 421.044ZM88.7599 413.024C107.314 413.024 125.054 415.696 141.994 421.029L144.045 414.515C126.413 408.964 107.98 406.195 88.7599 406.195V413.024ZM142.066 421.051C159.324 426.071 180.84 435.7 206.665 450.048L209.982 444.078C183.948 429.615 161.928 419.717 143.973 414.493L142.066 421.051ZM211.738 447.063V297.729H204.909V447.063H211.738ZM206.614 294.773C180.147 310.079 158.156 320.339 140.587 325.673L142.571 332.207C160.855 326.657 183.361 316.109 210.033 300.684L206.614 294.773ZM140.625 325.661C123.367 330.682 104.486 333.208 83.9582 333.208V340.037C105.046 340.037 124.578 337.442 142.533 332.219L140.625 325.661ZM83.9582 333.208C64.3856 333.208 46.4622 330.84 30.1647 326.139L28.2719 332.701C45.2665 337.603 63.8364 340.037 83.9582 340.037V333.208ZM30.1647 326.139C13.8988 321.447 -6.31577 312.155 -30.5332 298.135L-33.9548 304.045C-9.51459 318.194 11.2458 327.789 28.2719 332.701L30.1647 326.139ZM-35.6586 301.09V447.063H-28.8294V301.09H-35.6586ZM-32.3597 575.321C5.15009 576.592 42.0217 582.155 78.2604 592.009L80.0524 585.419C43.3047 575.426 5.90933 569.785 -32.1283 568.495L-32.3597 575.321ZM78.2946 592.018C114.834 601.55 157.68 617.945 206.861 641.258L209.786 635.087C160.37 611.662 117.106 595.085 80.0184 585.41L78.2946 592.018ZM211.738 638.172V474.433H204.909V638.172H211.738ZM210.243 471.609C186.102 455.193 164.995 443.957 146.963 438.055L144.839 444.546C162.019 450.169 182.528 461.021 206.403 477.256L210.243 471.609ZM147.016 438.073C129.017 431.855 109.589 428.763 88.7599 428.763V435.592C108.906 435.592 127.572 438.581 144.786 444.528L147.016 438.073ZM88.7599 428.763C67.9301 428.763 48.3497 431.856 30.0419 438.067L32.2361 444.534C49.7813 438.581 68.6149 435.592 88.7599 435.592V428.763ZM30.0769 438.055C12.0595 443.952 -9.35764 455.179 -34.1295 471.586L-30.3585 477.279C-5.83246 461.035 15.0057 450.173 32.2011 444.546L30.0769 438.055ZM-35.6586 474.433V571.908H-28.8294V474.433H-35.6586Z" fill="#EABF77"/>
</svg>
