<svg width="360" height="724" viewBox="0 0 360 724" fill="none" xmlns="http://www.w3.org/2000/svg">
<path d="M511.791 5.46098L514.476 3.35112L512.494 0.830017L509.854 2.64906L511.791 5.46098ZM677.451 216.258L679.363 219.086L682.402 217.032L680.136 214.148L677.451 216.258ZM523.315 320.455L521.403 317.626L516.959 320.63L521.561 323.385L523.315 320.455ZM628.473 414.089L625.71 416.095L625.72 416.109L625.73 416.122L628.473 414.089ZM690.416 553.34L693.733 552.53L693.727 552.508L693.722 552.486L690.416 553.34ZM711.063 613.842L708.071 615.487L708.088 615.518L708.106 615.548L711.063 613.842ZM737.953 643.613L735.7 646.178L737.917 648.125L740.164 646.214L737.953 643.613ZM785.97 602.798L788.453 600.453L786.228 598.097L783.759 600.196L785.97 602.798ZM802.296 620.084L804.51 622.684L807.248 620.354L804.779 617.74L802.296 620.084ZM686.094 719L684.274 721.889L686.397 723.227L688.307 721.6L686.094 719ZM635.676 671.943L638.584 670.153L638.557 670.11L638.529 670.068L635.676 671.943ZM595.341 558.142L598.61 557.154L598.607 557.145L598.604 557.135L595.341 558.142ZM555.007 470.27L557.842 468.367L555.007 470.27ZM503.148 415.53L501.22 418.348L501.237 418.359L501.254 418.371L503.148 415.53ZM429.681 382.398L430.7 379.139L429.171 378.661L427.826 379.531L429.681 382.398ZM397.029 403.526L395.174 400.659L393.615 401.668V403.526H397.029ZM397.029 602.798H393.615V605.267L395.96 606.041L397.029 602.798ZM489.223 643.613L487.59 646.611L489.692 647.756L491.485 646.17L489.223 643.613ZM539.161 599.437L541.681 597.133L539.414 594.654L536.898 596.879L539.161 599.437ZM554.526 616.243L556.696 618.879L559.474 616.593L557.046 613.939L554.526 616.243ZM429.681 719L428.137 722.045L430.128 723.055L431.851 721.636L429.681 719ZM311.078 670.502L310.161 673.792L310.169 673.794L311.078 670.502ZM87.3168 677.705L86.1667 674.49L86.1503 674.496L86.1341 674.502L87.3168 677.705ZM17.6915 719L15.423 721.552L17.5421 723.436L19.7832 721.699L17.6915 719ZM4.7268 707.476L2.03378 705.377L0.0657396 707.901L2.45828 710.028L4.7268 707.476ZM100.281 617.683L98.5375 614.748L98.5311 614.751L98.5247 614.755L100.281 617.683ZM218.885 578.789L219.371 582.169L222.299 581.748V578.789H218.885ZM206.88 481.314L203.713 482.591L203.717 482.6L203.721 482.609L206.88 481.314ZM163.184 419.371L160.734 421.749L160.743 421.758L160.752 421.767L163.184 419.371ZM96.4401 366.072L98.1731 363.13L98.1571 363.12L98.141 363.111L96.4401 366.072ZM33.0571 340.142H29.6425V342.641L32.0233 343.397L33.0571 340.142ZM33.0571 320.455L31.8712 317.253L29.6425 318.079V320.455H33.0571ZM128.612 267.636L126.711 264.8L126.703 264.805L126.696 264.81L128.612 267.636ZM218.885 207.134L220.786 209.971L222.299 208.956V207.134H218.885ZM210.241 118.782L206.991 119.827L206.993 119.836L206.996 119.844L210.241 118.782ZM48.9028 83.7294L46.8945 86.4909L48.8679 87.9261L50.865 86.5239L48.9028 83.7294ZM33.0571 72.2052L30.6122 69.8215L27.8581 72.6463L31.0487 74.9667L33.0571 72.2052ZM100.281 20.3464L101.687 23.4583L101.698 23.4533L101.709 23.4481L100.281 20.3464ZM256.818 26.1085L255.055 29.0327L255.065 29.0383L255.074 29.0439L256.818 26.1085ZM306.276 79.888L309.372 78.448L309.364 78.4306L309.356 78.4132L306.276 79.888ZM317.32 139.43L313.908 139.556L314.138 145.768L319.257 142.242L317.32 139.43ZM447.928 77.007L450.613 74.8983L448.658 72.4079L446.027 74.17L447.928 77.007ZM397.029 111.099L395.129 108.262L393.615 109.277V111.099H397.029ZM397.029 376.636H393.615V383.02L398.925 379.476L397.029 376.636ZM584.777 251.31L586.673 254.15L589.741 252.103L587.463 249.202L584.777 251.31ZM374.941 126.465H378.356V119.907L372.983 123.668L374.941 126.465ZM317.32 166.8L315.362 164.002L313.906 165.022V166.8H317.32ZM317.32 582.63H313.906V585.571L316.814 586.007L317.32 582.63ZM374.941 595.595L373.96 598.866L378.356 600.185V595.595H374.941ZM218.885 234.024H222.299V227.596L216.973 231.195L218.885 234.024ZM112.286 306.05L110.374 303.221L105.425 306.565L110.818 309.133L112.286 306.05ZM162.224 334.861L160.208 337.616L160.223 337.628L160.239 337.639L162.224 334.861ZM218.885 382.878L216.571 385.39L222.299 390.665V382.878H218.885ZM509.106 7.57085L674.766 218.367L680.136 214.148L514.476 3.35112L509.106 7.57085ZM675.539 213.429L521.403 317.626L525.227 323.284L679.363 219.086L675.539 213.429ZM521.561 323.385C565.078 349.432 599.767 380.345 625.71 416.095L631.237 412.084C604.68 375.488 569.264 343.978 525.069 317.525L521.561 323.385ZM625.73 416.122C651.969 451.529 672.461 497.51 687.11 554.194L693.722 552.486C678.92 495.208 658.117 448.355 631.217 412.056L625.73 416.122ZM687.099 554.15C693.839 581.753 700.805 602.277 708.071 615.487L714.055 612.196C707.236 599.798 700.437 579.987 693.733 552.53L687.099 554.15ZM708.106 615.548C713.188 624.358 722.485 634.575 735.7 646.178L740.206 641.047C727.172 629.602 718.542 619.972 714.021 612.135L708.106 615.548ZM740.164 646.214L788.182 605.4L783.759 600.196L735.742 641.011L740.164 646.214ZM783.488 605.142L799.814 622.429L804.779 617.74L788.453 600.453L783.488 605.142ZM800.083 617.484L683.881 716.4L688.307 721.6L804.51 622.684L800.083 617.484ZM687.914 716.111C664.817 701.557 648.465 686.21 638.584 670.153L632.768 673.732C643.374 690.968 660.634 706.993 684.274 721.889L687.914 716.111ZM638.529 670.068C635.113 664.869 630.035 652.983 623.289 633.949C616.592 615.055 608.367 589.464 598.61 557.154L592.072 559.129C601.843 591.483 610.103 617.19 616.852 636.23C623.55 655.129 628.876 667.813 632.822 673.818L638.529 670.068ZM598.604 557.135C587.963 522.633 574.389 493.026 557.842 468.367L552.171 472.172C568.276 496.171 581.591 525.145 592.078 559.148L598.604 557.135ZM557.842 468.367C541.346 443.785 523.763 425.169 505.042 412.689L501.254 418.371C519.026 430.219 536.015 448.097 552.171 472.172L557.842 468.367ZM505.076 412.712C486.454 399.97 461.621 388.802 430.7 379.139L428.663 385.657C459.204 395.201 483.348 406.12 501.22 418.348L505.076 412.712ZM427.826 379.531L395.174 400.659L398.884 406.392L431.536 385.265L427.826 379.531ZM393.615 403.526V602.798H400.444V403.526H393.615ZM395.96 606.041C424.862 615.569 455.404 629.084 487.59 646.611L490.856 640.614C458.378 622.928 427.458 609.234 398.098 599.555L395.96 606.041ZM491.485 646.17L541.423 601.994L536.898 596.879L486.96 641.055L491.485 646.17ZM536.641 601.741L552.006 618.547L557.046 613.939L541.681 597.133L536.641 601.741ZM552.356 613.606L427.511 716.364L431.851 721.636L556.696 618.879L552.356 613.606ZM431.225 715.955C385.65 692.846 345.894 676.576 311.987 667.211L310.169 673.794C343.487 682.996 382.799 699.057 428.137 722.045L431.225 715.955ZM311.995 667.213C278.41 657.848 244.489 653.163 210.241 653.163V659.992C243.858 659.992 277.162 664.59 310.161 673.792L311.995 667.213ZM210.241 653.163C167.281 653.163 125.917 660.27 86.1667 674.49L88.4669 680.92C127.465 666.969 168.051 659.992 210.241 659.992V653.163ZM86.1341 674.502C64.8867 682.347 41.3698 696.329 15.5998 716.301L19.7832 721.699C45.2318 701.976 68.1318 688.429 88.4995 680.908L86.1341 674.502ZM19.96 716.448L6.99532 704.924L2.45828 710.028L15.423 721.552L19.96 716.448ZM7.41981 709.575C38.9445 669.134 70.4958 639.537 102.038 620.611L98.5247 614.755C66.0439 634.244 33.8922 664.508 2.03378 705.377L7.41981 709.575ZM102.025 620.619C133.886 601.692 172.969 588.843 219.371 582.169L218.398 575.409C171.327 582.18 131.34 595.261 98.5375 614.748L102.025 620.619ZM222.299 578.789V557.181H215.47V578.789H222.299ZM222.299 557.181C222.299 525.877 218.271 500.103 210.04 480.019L203.721 482.609C211.495 501.579 215.47 526.383 215.47 557.181H222.299ZM210.047 480.037C201.822 459.639 186.941 438.623 165.617 416.975L160.752 421.767C181.683 443.015 195.933 463.294 203.713 482.591L210.047 480.037ZM165.635 416.993C144.319 395.031 121.834 377.067 98.1731 363.13L94.7071 369.014C117.783 382.607 139.794 400.175 160.734 421.749L165.635 416.993ZM98.141 363.111C82.793 354.294 61.4047 345.564 34.0908 336.888L32.0233 343.397C59.1292 352.007 79.9963 360.563 94.7392 369.033L98.141 363.111ZM36.4717 340.142V320.455H29.6425V340.142H36.4717ZM34.243 323.657C60.5422 313.917 92.6534 296.14 130.528 270.462L126.696 264.81C89.0227 290.351 57.4308 307.787 31.8712 317.253L34.243 323.657ZM130.513 270.473L220.786 209.971L216.984 204.298L126.711 264.8L130.513 270.473ZM222.299 207.134C222.299 165.811 219.431 135.884 213.487 117.72L206.996 119.844C212.576 136.893 215.47 165.867 215.47 207.134H222.299ZM213.492 117.737C207.485 99.0492 195.801 83.5765 178.609 71.3438L174.65 76.9081C190.75 88.3639 201.473 102.662 206.991 119.827L213.492 117.737ZM178.609 71.3438C161.383 59.0868 142.124 52.9449 120.929 52.9449V59.774C140.709 59.774 158.583 65.4764 174.65 76.9081L178.609 71.3438ZM120.929 52.9449C108.092 52.9449 96.3148 54.9204 85.6377 58.9244L88.0355 65.3187C97.8458 61.6399 108.797 59.774 120.929 59.774V52.9449ZM85.6377 58.9244C75.0023 62.9126 62.0857 70.3011 46.9407 80.9349L50.865 86.5239C65.8108 76.03 78.1835 69.0132 88.0355 65.3187L85.6377 58.9244ZM50.9112 80.9679L35.0654 69.4437L31.0487 74.9667L46.8945 86.4909L50.9112 80.9679ZM35.5019 74.5889C60.3397 49.1143 82.399 32.169 101.687 23.4583L98.8761 17.2345C78.4695 26.4503 55.7126 44.0775 30.6122 69.8215L35.5019 74.5889ZM101.709 23.4481C121.308 14.4266 145.597 9.83591 174.708 9.83591V3.00676C144.918 3.00676 119.59 7.69948 98.8537 17.2447L101.709 23.4481ZM174.708 9.83591C207.24 9.83591 233.956 16.3108 255.055 29.0327L258.581 23.1843C236.145 9.65663 208.121 3.00676 174.708 3.00676V9.83591ZM255.074 29.0439C276.595 41.8315 292.61 59.2551 303.197 81.3628L309.356 78.4132C298.175 55.0644 281.218 36.635 258.563 23.173L255.074 29.0439ZM303.18 81.328C309.301 94.4874 312.954 113.804 313.908 139.556L320.733 139.303C319.766 113.196 316.056 92.8186 309.372 78.448L303.18 81.328ZM319.257 142.242L513.728 8.27292L509.854 2.64906L315.383 136.618L319.257 142.242ZM446.027 74.17L395.129 108.262L398.929 113.936L449.828 79.8439L446.027 74.17ZM393.615 111.099V376.636H400.444V111.099H393.615ZM398.925 379.476L586.673 254.15L582.882 248.47L395.133 373.796L398.925 379.476ZM587.463 249.202L450.613 74.8983L445.242 79.1156L582.092 253.419L587.463 249.202ZM372.983 123.668L315.362 164.002L319.278 169.597L376.899 129.262L372.983 123.668ZM313.906 166.8V582.63H320.735V166.8H313.906ZM316.814 586.007C335.855 588.863 354.904 593.149 373.96 598.866L375.922 592.325C356.565 586.517 337.199 582.16 317.827 579.254L316.814 586.007ZM378.356 595.595V126.465H371.527V595.595H378.356ZM216.973 231.195L110.374 303.221L114.198 308.879L220.796 236.853L216.973 231.195ZM110.818 309.133C130.858 318.676 147.305 328.175 160.208 337.616L164.24 332.105C150.893 322.339 134.048 312.631 113.754 302.967L110.818 309.133ZM160.239 337.639C173.505 347.115 192.265 363.002 216.571 385.39L221.198 380.366C196.846 357.937 177.833 341.813 164.209 332.082L160.239 337.639ZM222.299 382.878V234.024H215.47V382.878H222.299Z" fill="#EABF77"/>
</svg>
