<svg width="331" height="743" viewBox="0 0 331 743" fill="none" xmlns="http://www.w3.org/2000/svg">
<path d="M-153.248 4.13942L-152.168 0.90007L-153.941 0.309143L-155.394 1.48376L-153.248 4.13942ZM64.2711 76.6457L63.1912 79.8851L65.8718 80.7786L67.2512 78.3126L64.2711 76.6457ZM80.1168 48.3155L77.1407 46.6414L77.1367 46.6486L80.1168 48.3155ZM108.447 29.1085L105.855 31.3307L105.94 31.4302L106.033 31.5229L108.447 29.1085ZM100.284 63.2009L97.3373 61.4759L97.3326 61.4839L97.3279 61.4919L100.284 63.2009ZM-1.03265 238.464L-3.98883 236.756L-7.07904 242.101L-0.9086 241.877L-1.03265 238.464ZM78.1961 235.583L78.3202 238.996L78.3273 238.995L78.1961 235.583ZM165.108 246.147L164.302 249.466L164.31 249.467L165.108 246.147ZM250.579 283.601L248.59 286.377L248.612 286.392L248.633 286.407L250.579 283.601ZM306.759 343.142L303.81 344.863L303.824 344.887L303.838 344.911L306.759 343.142ZM263.543 567.864L260.966 565.624L260.965 565.625L263.543 567.864ZM37.3813 722L36.0853 725.159L37.5184 725.747L38.9047 725.056L37.3813 722ZM-93.2261 673.502L-92.1214 670.271L-93.4423 669.82L-94.7013 670.423L-93.2261 673.502ZM-413.022 712.396L-415.197 715.029L-415.176 715.046L-415.155 715.063L-413.022 712.396ZM-405.82 580.349L-403.73 583.049L-403.72 583.041L-403.71 583.034L-405.82 580.349ZM-208.468 555.38L-208.956 558.759L-206.618 559.096L-205.478 557.028L-208.468 555.38ZM-172.455 490.076L-169.465 491.725L-166.532 486.406L-172.6 486.664L-172.455 490.076ZM-240.159 492.957L-240.094 496.371L-240.054 496.37L-240.014 496.368L-240.159 492.957ZM-307.384 486.234L-307.995 489.594L-307.976 489.597L-307.958 489.6L-307.384 486.234ZM-377.009 461.746L-378.819 464.641L-378.807 464.648L-378.796 464.655L-377.009 461.746ZM-400.538 293.204L-398.016 295.507L-398.011 295.501L-400.538 293.204ZM-337.155 255.271L-335.941 258.462L-333.538 257.548L-333.752 254.987L-337.155 255.271ZM-337.635 249.508H-341.049V249.651L-341.038 249.792L-337.635 249.508ZM-298.261 147.231L-301.076 145.3L-301.08 145.305L-298.261 147.231ZM20.5752 153.474L23.5429 155.162L25.3295 152.023L22.0944 150.416L20.5752 153.474ZM-97.0675 103.535L-98.0691 106.8L-98.0521 106.805L-98.035 106.81L-97.0675 103.535ZM-249.283 230.782L-251.567 233.32L-251.555 233.331L-251.542 233.342L-249.283 230.782ZM-28.8828 240.385L-28.5261 243.781L-26.7823 243.598L-25.9151 242.074L-28.8828 240.385ZM-81.702 331.618L-78.7321 333.303L-75.3789 327.393L-82.1223 328.23L-81.702 331.618ZM-335.234 275.918L-332.077 274.618L-333.631 270.842L-337.072 273.041L-335.234 275.918ZM-342.917 379.636L-344.901 382.414L-344.891 382.422L-344.88 382.43L-342.917 379.636ZM-120.116 399.323L-119.824 402.725L-118.033 402.571L-117.146 401.008L-120.116 399.323ZM-93.2261 397.402L-96.1831 395.695L-99.5671 401.555L-92.8428 400.795L-93.2261 397.402ZM159.346 412.288L157.111 414.869L157.122 414.879L157.133 414.888L159.346 412.288ZM159.826 543.375L157.411 540.961L157.402 540.97L157.393 540.979L159.826 543.375ZM27.7778 618.763L26.4201 615.629L17.9394 619.304L26.7725 622.026L27.7778 618.763ZM122.852 648.053L121.847 651.316L123.329 651.773L124.648 650.957L122.852 648.053ZM232.332 395.001L229.418 396.782L229.433 396.806L229.448 396.829L232.332 395.001ZM167.028 340.261L165.583 343.355L165.596 343.361L165.61 343.368L167.028 340.261ZM-53.8518 329.217L-54.3002 325.832L-55.9677 326.053L-56.8088 327.51L-53.8518 329.217ZM-186.38 559.221L-189.338 557.516L-191.709 561.628L-187.056 562.568L-186.38 559.221ZM-109.072 576.987L-109.975 580.28L-109.961 580.284L-109.072 576.987ZM-1.99301 609.639L-3.03 612.893L-1.75568 613.299L-0.544464 612.731L-1.99301 609.639ZM90.6806 482.393L88.3572 484.895L88.379 484.916L88.4012 484.935L90.6806 482.393ZM-7.7551 475.671L-7.29376 479.054L-7.26801 479.05L-7.24231 479.046L-7.7551 475.671ZM-146.525 490.076V486.661H-148.499L-149.484 488.371L-146.525 490.076ZM-125.398 663.419L-123.953 666.513L-115.845 662.726L-124.414 660.149L-125.398 663.419ZM-387.093 643.732L-385.084 646.493L-385.064 646.478L-385.044 646.463L-387.093 643.732ZM-387.093 700.392L-385.149 697.585L-385.174 697.568L-385.199 697.551L-387.093 700.392ZM-154.328 7.37877L63.1912 79.8851L65.3508 73.4064L-152.168 0.90007L-154.328 7.37877ZM67.2512 78.3126L83.0969 49.9823L77.1367 46.6486L61.291 74.9789L67.2512 78.3126ZM83.0928 49.9895C85.9579 44.896 88.363 40.8374 90.3141 37.7937C92.311 34.6786 93.7009 32.8379 94.5356 32.0031L89.7067 27.1742C88.3006 28.5802 86.5694 30.981 84.5648 34.1082C82.5144 37.3068 80.0377 41.4912 77.1407 46.6414L83.0928 49.9895ZM94.5356 32.0031C96.5479 29.9909 98.5906 29.1618 100.764 29.1618V22.3327C96.5356 22.3327 92.8163 24.0646 89.7067 27.1742L94.5356 32.0031ZM100.764 29.1618C103.064 29.1618 104.642 29.9163 105.855 31.3307L111.04 26.8863C108.411 23.8191 104.867 22.3327 100.764 22.3327V29.1618ZM106.033 31.5229C107.703 33.1937 108.394 34.9106 108.394 36.7913H115.223C115.223 32.9098 113.672 29.5049 110.862 26.694L106.033 31.5229ZM108.394 36.7913C108.394 38.274 107.697 41.0372 105.798 45.3893C103.952 49.6181 101.145 54.9711 97.3373 61.4759L103.231 64.9258C107.106 58.3059 110.061 52.6949 112.057 48.1205C113.999 43.6694 115.223 39.7901 115.223 36.7913H108.394ZM97.3279 61.4919L-3.98883 236.756L1.92349 240.173L103.24 64.9098L97.3279 61.4919ZM-0.9086 241.877L78.3202 238.996L78.072 232.171L-1.15674 235.052L-0.9086 241.877ZM78.3273 238.995C102.892 238.051 131.535 241.512 164.302 249.465L165.913 242.829C132.736 234.776 103.439 231.195 78.0649 232.171L78.3273 238.995ZM164.31 249.467C197.247 257.385 225.317 269.708 248.59 286.377L252.567 280.825C228.463 263.562 199.552 250.915 165.906 242.827L164.31 249.467ZM248.633 286.407C272.271 302.796 290.639 322.285 303.81 344.863L309.708 341.422C295.989 317.903 276.903 297.698 252.524 280.795L248.633 286.407ZM303.838 344.911C317.268 367.086 323.992 391.6 323.992 418.53H330.821C330.821 390.4 323.78 364.655 309.68 341.374L303.838 344.911ZM323.992 418.53C323.992 468.074 303.159 517.087 260.966 565.624L266.12 570.104C309.079 520.685 330.821 470.143 330.821 418.53H323.992ZM260.965 565.625C219.161 613.763 144.267 664.9 35.8578 718.944L38.9047 725.056C147.535 670.901 223.415 619.28 266.121 570.103L260.965 565.625ZM38.6773 718.841C1.14551 703.443 -42.4566 687.254 -92.1214 670.271L-94.3309 676.733C-44.7597 693.683 -1.29013 709.826 36.0853 725.159L38.6773 718.841ZM-94.7013 670.423C-186.091 714.2 -260.287 735.872 -317.468 735.872V742.701C-258.766 742.701 -183.468 720.516 -91.751 676.582L-94.7013 670.423ZM-317.468 735.872C-358.319 735.872 -389.303 726.999 -410.889 709.73L-415.155 715.063C-391.926 733.647 -359.207 742.701 -317.468 742.701V735.872ZM-410.848 709.764C-432.332 692.016 -442.74 671.95 -442.74 649.494H-449.569C-449.569 674.415 -437.889 696.283 -415.197 715.029L-410.848 709.764ZM-442.74 649.494C-442.74 625.599 -430.094 603.449 -403.73 583.049L-407.909 577.648C-435.325 598.863 -449.569 622.81 -449.569 649.494H-442.74ZM-403.71 583.034C-377.672 562.575 -338.704 552.072 -286.256 552.072V545.242C-339.447 545.242 -380.188 555.867 -407.929 577.664L-403.71 583.034ZM-286.256 552.072C-265.671 552.072 -239.918 554.29 -208.956 558.759L-207.98 552C-239.121 547.505 -265.226 545.242 -286.256 545.242V552.072ZM-205.478 557.028L-169.465 491.725L-175.445 488.427L-211.458 553.731L-205.478 557.028ZM-172.6 486.664L-240.305 489.545L-240.014 496.368L-172.31 493.487L-172.6 486.664ZM-240.225 489.543C-256.558 489.857 -278.724 487.656 -306.81 482.868L-307.958 489.6C-279.703 494.417 -257.053 496.697 -240.094 496.371L-240.225 489.543ZM-306.773 482.875C-334.659 477.805 -357.436 469.757 -375.222 458.836L-378.796 464.655C-360.089 476.142 -336.449 484.42 -307.995 489.594L-306.773 482.875ZM-375.199 458.85C-392.699 447.913 -405.704 434.556 -414.351 418.807L-420.337 422.094C-411.057 438.997 -397.173 453.17 -378.819 464.641L-375.199 458.85ZM-414.351 418.807C-423.049 402.965 -427.374 386.401 -427.374 369.072H-434.203C-434.203 387.596 -429.565 405.285 -420.337 422.094L-414.351 418.807ZM-427.374 369.072C-427.374 341.479 -417.64 317 -398.016 295.507L-403.059 290.902C-423.77 313.585 -434.203 339.684 -434.203 369.072H-427.374ZM-398.011 295.501C-385.73 281.992 -365.179 269.585 -335.941 258.462L-338.369 252.079C-368.032 263.364 -389.736 276.246 -403.064 290.907L-398.011 295.501ZM-333.752 254.987L-334.232 249.225L-341.038 249.792L-340.557 255.554L-333.752 254.987ZM-334.22 249.508C-334.22 220.712 -321.505 187.3 -295.441 149.158L-301.08 145.305C-327.515 183.991 -341.049 218.763 -341.049 249.508H-334.22ZM-295.445 149.163C-269.163 110.848 -221.14 63.4016 -151.102 6.79507L-155.394 1.48376C-225.567 58.1984 -274.219 106.147 -301.076 145.3L-295.445 149.163ZM22.0944 150.416C-28.2122 125.423 -67.6392 108.67 -96.1 100.261L-98.035 106.81C-70.1554 115.047 -31.154 131.587 19.0559 156.532L22.0944 150.416ZM-96.0659 100.271C-124.449 91.5628 -149.607 87.1562 -171.495 87.1562V93.9854C-150.486 93.9854 -126.027 98.2219 -98.0691 106.8L-96.0659 100.271ZM-171.495 87.1562C-202.263 87.1562 -227.617 95.8494 -247.243 113.48L-242.679 118.56C-224.532 102.258 -200.908 93.9854 -171.495 93.9854V87.1562ZM-247.243 113.48C-266.757 131.009 -276.706 151.745 -276.706 175.562H-269.877C-269.877 153.922 -260.939 134.963 -242.679 118.56L-247.243 113.48ZM-276.706 175.562C-276.706 198.893 -268.325 218.238 -251.567 233.32L-246.999 228.244C-262.252 214.515 -269.877 197.046 -269.877 175.562H-276.706ZM-251.542 233.342C-234.345 248.516 -208.896 255.804 -175.816 255.804V248.975C-208.039 248.975 -231.569 241.858 -247.024 228.221L-251.542 233.342ZM-175.816 255.804C-153.833 255.804 -104.663 251.779 -28.5261 243.781L-29.2395 236.989C-105.478 244.998 -154.263 248.975 -175.816 248.975V255.804ZM-25.9151 242.074L23.5429 155.162L17.6075 151.785L-31.8505 238.696L-25.9151 242.074ZM-82.1223 328.23C-123.288 333.336 -163.162 335.887 -201.746 335.887V342.716C-162.861 342.716 -122.706 340.145 -81.2816 335.007L-82.1223 328.23ZM-201.746 335.887C-245.201 335.887 -275.321 330.742 -292.748 320.958L-296.091 326.913C-277.024 337.617 -245.362 342.716 -201.746 342.716V335.887ZM-292.748 320.958C-310.241 311.137 -323.367 295.769 -332.077 274.618L-338.391 277.218C-329.174 299.603 -315.091 316.246 -296.091 326.913L-292.748 320.958ZM-337.072 273.041C-360.815 288.21 -373.221 307.421 -373.221 330.658H-366.392C-366.392 310.36 -355.749 293.077 -333.396 278.796L-337.072 273.041ZM-373.221 330.658C-373.221 351.742 -363.611 369.051 -344.901 382.414L-340.932 376.857C-358.076 364.612 -366.392 349.269 -366.392 330.658H-373.221ZM-344.88 382.43C-320.279 399.717 -278.862 408.019 -221.433 408.019V401.19C-278.605 401.19 -318.178 392.847 -340.954 376.842L-344.88 382.43ZM-221.433 408.019C-194.728 408.019 -160.849 406.251 -119.824 402.725L-120.408 395.921C-161.332 399.438 -194.998 401.19 -221.433 401.19V408.019ZM-117.146 401.008L-78.7321 333.303L-84.6718 329.933L-123.086 397.638L-117.146 401.008ZM-92.8428 400.795C-16.3246 392.151 36.6374 387.852 66.1917 387.852V381.023C36.2044 381.023 -17.1122 385.367 -93.6094 394.009L-92.8428 400.795ZM66.1917 387.852C106.376 387.852 136.505 397.031 157.111 414.869L161.58 409.706C139.29 390.41 107.317 381.023 66.1917 381.023V387.852ZM157.133 414.888C177.904 432.559 188.103 453.571 188.103 478.071H194.932C194.932 451.354 183.683 428.509 161.558 409.687L157.133 414.888ZM188.103 478.071C188.103 499.304 178.119 520.253 157.411 540.961L162.24 545.79C183.788 524.242 194.932 501.656 194.932 478.071H188.103ZM157.393 540.979C137.104 561.58 93.6655 586.49 26.4201 615.629L29.1354 621.896C96.3389 592.774 140.933 567.425 162.259 545.771L157.393 540.979ZM26.7725 622.026L121.847 651.316L123.858 644.79L28.7831 615.499L26.7725 622.026ZM124.648 650.957C166.838 624.871 199.524 596.595 222.572 566.081L217.123 561.965C194.714 591.632 162.737 619.377 121.057 645.149L124.648 650.957ZM222.572 566.081C245.728 535.424 257.354 501.576 257.354 464.627H250.525C250.525 500.024 239.424 532.439 217.123 561.965L222.572 566.081ZM257.354 464.627C257.354 440.206 249.919 416.372 235.216 393.173L229.448 396.829C243.555 419.087 250.525 441.67 250.525 464.627H257.354ZM235.246 393.221C220.74 369.484 198.392 350.826 168.446 337.155L165.61 343.368C194.566 356.587 215.754 374.422 229.418 396.782L235.246 393.221ZM168.474 337.168C138.496 323.156 104.055 316.199 65.2314 316.199V323.029C103.236 323.029 136.659 329.836 165.583 343.355L168.474 337.168ZM65.2314 316.199C33.9708 316.199 -5.88751 319.42 -54.3002 325.832L-53.4035 332.602C-5.14108 326.21 34.3894 323.029 65.2314 323.029V316.199ZM-56.8088 327.51L-96.1831 395.695L-90.2692 399.11L-50.8949 330.925L-56.8088 327.51ZM-187.056 562.568C-155.403 568.962 -129.717 574.867 -109.975 580.28L-108.169 573.694C-128.121 568.224 -153.974 562.284 -185.704 555.874L-187.056 562.568ZM-109.961 580.284C-89.8776 585.703 -54.2523 596.565 -3.03 612.893L-0.956024 606.386C-52.171 590.061 -87.9315 579.155 -108.182 573.691L-109.961 580.284ZM-0.544464 612.731C35.1383 596.015 62.1475 579.23 80.2846 562.318C98.4138 545.414 108.02 528.049 108.02 510.243H101.191C101.191 525.41 93.0311 541.096 75.6274 557.324C58.2316 573.544 31.9414 589.971 -3.44156 606.547L-0.544464 612.731ZM108.02 510.243C108.02 498.822 102.796 488.669 92.96 479.851L88.4012 484.935C97.1323 492.763 101.191 501.177 101.191 510.243H108.02ZM93.0041 479.891C83.3137 470.893 70.9151 466.494 56.1081 466.494V473.323C69.4713 473.323 80.1211 477.247 88.3572 484.895L93.0041 479.891ZM56.1081 466.494C38.5899 466.494 17.1187 468.439 -8.26788 472.295L-7.24231 479.046C17.9495 475.22 39.0537 473.323 56.1081 473.323V466.494ZM-8.21646 472.287C-78.6927 481.898 -124.712 486.661 -146.525 486.661V493.49C-124.163 493.49 -77.6686 488.65 -7.29376 479.054L-8.21646 472.287ZM-149.484 488.371L-189.338 557.516L-183.422 560.926L-143.567 491.781L-149.484 488.371ZM-124.414 660.149C-206.498 635.46 -273.288 623.031 -324.67 623.031V629.86C-274.255 629.86 -208.198 642.08 -126.381 666.689L-124.414 660.149ZM-324.67 623.031C-351.392 623.031 -373.002 628.895 -389.142 641L-385.044 646.463C-370.452 635.519 -350.448 629.86 -324.67 629.86V623.031ZM-389.101 640.97C-400.381 649.174 -406.353 659.574 -406.353 672.062H-399.524C-399.524 662.142 -394.932 653.655 -385.084 646.493L-389.101 640.97ZM-406.353 672.062C-406.353 685.142 -400.419 695.612 -388.987 703.233L-385.199 697.551C-394.894 691.088 -399.524 682.67 -399.524 672.062H-406.353ZM-389.036 703.2C-371.58 715.285 -346.609 721.093 -314.586 721.093V714.264C-345.947 714.264 -369.314 708.548 -385.149 697.585L-389.036 703.2ZM-314.586 721.093C-265.185 721.093 -201.581 702.76 -123.953 666.513L-126.842 660.325C-204.151 696.423 -266.673 714.264 -314.586 714.264V721.093Z" fill="#EABF77"/>
</svg>
