<svg width="345" height="727" viewBox="0 0 345 727" fill="none" xmlns="http://www.w3.org/2000/svg">
<path d="M712.869 5.13942L714.833 2.34564L712.046 0.387642L710.081 3.16883L712.869 5.13942ZM730.636 17.6239L733.973 18.3465L734.452 16.1325L732.599 14.8302L730.636 17.6239ZM702.786 91.0906L699.937 89.2083L699.925 89.2262L699.913 89.2442L702.786 91.0906ZM651.407 133.826L652.827 136.932L652.836 136.927L652.846 136.923L651.407 133.826ZM516.478 146.311L516.77 142.909L513.063 142.591V146.311H516.478ZM516.478 631.767H513.063V636.368L517.467 635.035L516.478 631.767ZM632.68 575.106L634.813 577.773L634.822 577.765L634.831 577.758L632.68 575.106ZM712.869 474.75L714.363 471.679L711.478 470.276L709.898 473.068L712.869 474.75ZM730.636 483.393L733.88 484.458L734.81 481.626L732.13 480.323L730.636 483.393ZM681.658 586.63L678.882 584.643L678.874 584.654L681.658 586.63ZM566.416 686.507L567.984 689.54L567.992 689.536L568.001 689.531L566.416 686.507ZM234.136 688.427L232.755 691.55L232.763 691.554L234.136 688.427ZM88.1625 543.415L85.0639 544.849L85.0694 544.861L85.0749 544.873L88.1625 543.415ZM90.5634 299.006L87.434 297.64L90.5634 299.006ZM168.352 183.284L165.869 180.94L165.86 180.949L165.852 180.958L168.352 183.284ZM260.545 106.936L262.506 109.732L270.571 104.074L260.734 103.527L260.545 106.936ZM200.043 103.575L199.848 106.984L199.854 106.984L200.043 103.575ZM125.616 117.98L126.852 121.163L126.868 121.157L126.884 121.151L125.616 117.98ZM61.7529 160.716L59.1604 158.494L59.1489 158.507L59.1375 158.521L61.7529 160.716ZM22.3787 240.905L20.6335 243.84L24.3388 246.043L25.6352 241.932L22.3787 240.905ZM4.6122 230.341L1.29149 229.546L0.706043 231.991L2.8671 233.276L4.6122 230.341ZM46.8675 124.223L44.0514 122.292L44.0486 122.296L46.8675 124.223ZM138.101 46.4344L139.586 49.509L139.596 49.504L139.607 49.4988L138.101 46.4344ZM670.134 51.2361L671.828 54.2008L671.841 54.1933L671.854 54.1856L670.134 51.2361ZM314.325 111.738H317.739V108.631L314.645 108.339L314.325 111.738ZM288.875 109.337L289.196 105.938L287.752 105.802L286.652 106.746L288.875 109.337ZM194.281 219.777L197.275 221.419L197.276 221.418L194.281 219.777ZM263.906 592.393L261.824 595.099L263.994 596.769L266.096 595.013L263.906 592.393ZM494.39 141.989H497.805V139.01L494.853 138.606L494.39 141.989ZM413.721 128.544L414.408 125.2L410.306 124.357V128.544H413.721ZM409.399 480.032L406.138 479.02L406.127 479.057L406.116 479.094L409.399 480.032ZM390.672 510.763L393.206 513.052L393.233 513.022L393.26 512.991L390.672 510.763ZM283.113 604.877L280.984 602.208L276.761 605.576L281.616 607.946L283.113 604.877ZM348.417 631.287L347.529 634.584L347.537 634.586L348.417 631.287ZM494.39 637.529L494.818 640.917L497.805 640.539V637.529H494.39ZM710.906 7.9332L728.673 20.4177L732.599 14.8302L714.833 2.34564L710.906 7.9332ZM727.298 16.9014C720.627 47.7188 711.464 71.7611 699.937 89.2083L705.635 92.9729C717.796 74.5671 727.2 49.6316 733.973 18.3465L727.298 16.9014ZM699.913 89.2442C688.797 106.537 672.215 120.39 649.968 130.73L652.846 136.923C676.056 126.135 693.726 111.497 705.658 92.9371L699.913 89.2442ZM649.987 130.721C628.103 140.725 602.674 145.777 573.619 145.777V152.606C603.465 152.606 629.895 147.415 652.827 136.932L649.987 130.721ZM573.619 145.777C558.062 145.777 539.118 144.824 516.77 142.909L516.186 149.713C538.654 151.639 557.804 152.606 573.619 152.606V145.777ZM513.063 146.311V631.767H519.893V146.311H513.063ZM517.467 635.035C566.394 620.228 605.561 601.174 634.813 577.773L630.547 572.44C602.178 595.135 563.877 613.855 515.489 628.499L517.467 635.035ZM634.831 577.758C664.067 554.045 691.05 520.218 715.841 476.432L709.898 473.068C685.391 516.353 658.914 549.431 630.529 572.454L634.831 577.758ZM711.376 477.82L729.142 486.464L732.13 480.323L714.363 471.679L711.376 477.82ZM727.392 482.328C713.374 525.019 697.182 559.085 678.882 584.643L684.434 588.618C703.268 562.317 719.728 527.558 733.88 484.458L727.392 482.328ZM678.874 584.654C649.425 626.135 611.428 659.074 564.832 683.482L568.001 689.531C615.518 664.641 654.349 630.996 684.442 588.607L678.874 584.654ZM564.848 683.474C518.35 707.513 464.484 719.585 403.157 719.585V726.415C465.394 726.415 520.368 714.158 567.984 689.54L564.848 683.474ZM403.157 719.585C343.424 719.585 287.553 708.15 235.508 685.301L232.763 691.554C285.716 714.802 342.526 726.415 403.157 726.415V719.585ZM235.516 685.304C205.49 672.03 177.97 653.374 152.952 629.306L148.218 634.228C173.779 658.818 201.959 677.935 232.755 691.55L235.516 685.304ZM152.952 629.306C127.988 605.29 107.415 576.188 91.2502 541.957L85.0749 544.873C101.562 579.787 122.604 609.586 148.218 634.228L152.952 629.306ZM91.2611 541.98C75.4927 507.92 67.5684 469.207 67.5684 425.772H60.7392C60.7392 470.049 68.8207 509.764 85.0639 544.849L91.2611 541.98ZM67.5684 425.772C67.5684 382.064 76.2752 340.274 93.6928 300.372L87.434 297.64C69.6388 338.407 60.7392 381.128 60.7392 425.772H67.5684ZM93.6928 300.372C111.125 260.437 136.825 222.181 170.851 185.61L165.852 180.958C131.374 218.014 105.215 256.906 87.434 297.64L93.6928 300.372ZM170.834 185.629C192.384 162.811 222.913 137.511 262.506 109.732L258.584 104.141C218.789 132.062 187.855 157.661 165.869 180.94L170.834 185.629ZM260.734 103.527L200.233 100.166L199.854 106.984L260.356 110.346L260.734 103.527ZM200.238 100.166C177.202 98.8498 151.886 103.795 124.348 114.81L126.884 121.151C153.766 110.398 178.068 105.74 199.848 106.984L200.238 100.166ZM124.38 114.797C96.7681 125.517 74.9689 140.051 59.1604 158.494L64.3455 162.938C79.2682 145.528 100.044 131.571 126.852 121.163L124.38 114.797ZM59.1375 158.521C43.6837 176.934 30.3905 204.141 19.1221 239.878L25.6352 241.932C36.775 206.603 49.7313 180.351 64.3684 162.911L59.1375 158.521ZM24.1238 237.97L6.3573 227.406L2.8671 233.276L20.6335 243.84L24.1238 237.97ZM7.93291 231.136C18.7656 185.894 32.7248 150.964 49.6865 126.15L44.0486 122.296C26.4377 148.06 12.2267 183.876 1.29149 229.546L7.93291 231.136ZM49.6836 126.154C72.3854 93.0469 102.331 67.5048 139.586 49.509L136.615 43.3598C98.3225 61.8572 67.4464 88.174 44.0514 122.292L49.6836 126.154ZM139.607 49.4988C176.847 31.1944 219.375 21.9989 267.268 21.9989V15.1697C218.485 15.1697 174.902 24.5409 136.594 43.37L139.607 49.4988ZM267.268 21.9989C300.564 21.9989 359.69 28.9933 444.855 43.0808L445.969 36.3432C360.833 22.2604 301.195 15.1697 267.268 15.1697V21.9989ZM444.855 43.0808C529.981 57.1618 588.825 64.2542 621.156 64.2542V57.4251C589.464 57.4251 531.145 50.4323 445.969 36.3432L444.855 43.0808ZM621.156 64.2542C642.849 64.2542 659.872 61.0329 671.828 54.2008L668.44 48.2715C657.988 54.2441 642.359 57.4251 621.156 57.4251V64.2542ZM671.854 54.1856C684.066 47.062 698.669 31.1504 715.658 7.11L710.081 3.16883C693.137 27.1459 679.25 41.9654 668.413 48.2867L671.854 54.1856ZM314.645 108.339L289.196 105.938L288.555 112.737L314.004 115.138L314.645 108.339ZM286.652 106.746C243.545 143.74 211.707 180.862 191.286 218.137L197.276 221.418C217.19 185.066 248.414 148.561 291.099 111.928L286.652 106.746ZM191.287 218.135C163.823 268.216 150.052 319.836 150.052 372.953H156.881C156.881 321.072 170.319 270.574 197.275 221.419L191.287 218.135ZM150.052 372.953C150.052 463.69 187.393 537.819 261.824 595.099L265.989 589.687C193.166 533.645 156.881 461.481 156.881 372.953H150.052ZM266.096 595.013C289.471 575.48 304.316 559.178 309.789 546.18L303.495 543.53C298.724 554.862 285.078 570.251 261.717 589.772L266.096 595.013ZM309.789 546.18C312.55 539.623 314.51 529.974 315.8 517.476C317.097 504.913 317.739 489.22 317.739 470.428H310.91C310.91 489.09 310.271 504.529 309.007 516.775C307.737 529.086 305.856 537.923 303.495 543.53L309.789 546.18ZM317.739 470.428V111.738H310.91V470.428H317.739ZM494.853 138.606C464.497 134.452 437.685 129.982 414.408 125.2L413.033 131.889C436.494 136.71 463.461 141.203 493.927 145.372L494.853 138.606ZM410.306 128.544V415.688H417.135V128.544H410.306ZM410.306 415.688C410.306 432.456 409.947 446.137 409.233 456.755C408.515 467.453 407.451 474.79 406.138 479.02L412.66 481.044C414.229 475.99 415.325 467.961 416.047 457.212C416.775 446.382 417.135 432.534 417.135 415.688H410.306ZM406.116 479.094C403.75 487.374 397.865 497.177 388.085 508.535L393.26 512.991C403.327 501.301 409.926 490.616 412.682 480.97L406.116 479.094ZM388.138 508.474C370.422 528.089 334.775 559.303 280.984 602.208L285.242 607.547C339.011 564.66 375.07 533.132 393.206 513.052L388.138 508.474ZM281.616 607.946C308.581 621.107 330.575 630.019 347.529 634.584L349.305 627.99C332.967 623.591 311.425 614.896 284.611 601.809L281.616 607.946ZM347.537 634.586C376.6 642.336 404.587 646.225 431.487 646.225V639.396C405.248 639.396 377.855 635.603 349.297 627.987L347.537 634.586ZM431.487 646.225C445.795 646.225 466.936 644.442 494.818 640.917L493.962 634.141C466.143 637.659 445.35 639.396 431.487 639.396V646.225ZM497.805 637.529V141.989H490.975V637.529H497.805Z" fill="#EABF77"/>
</svg>
