<svg width="430" height="756" viewBox="0 0 430 756" fill="none" xmlns="http://www.w3.org/2000/svg">
<path d="M376.826 42.2381L379.078 40.0561L376.885 37.7921L374.632 39.9969L376.826 42.2381ZM390.497 56.3505L392.823 58.4537L394.792 56.2765L392.749 54.1684L390.497 56.3505ZM353.452 109.272L356.373 110.414L356.377 110.404L356.381 110.393L353.452 109.272ZM354.334 578.065L351.699 579.765L351.712 579.785L351.725 579.805L354.334 578.065ZM412.106 571.009L414.623 569.137L412.566 566.371L410.006 568.68L412.106 571.009ZM424.896 588.208L426.832 590.675L429.235 588.788L427.412 586.337L424.896 588.208ZM318.171 672L316.756 674.799L318.538 675.7L320.108 674.467L318.171 672ZM266.132 627.458L263.347 628.899L263.362 628.928L263.377 628.956L266.132 627.458ZM252.902 116.769H256.038V115.223L254.812 114.281L252.902 116.769ZM178.812 59.8785L180.722 57.3912L179.001 56.0694L177.157 57.2146L178.812 59.8785ZM149.706 77.9599L148.051 75.296L146.57 76.2162V77.9599H149.706ZM149.706 297.583H146.57V300.719H149.706V297.583ZM203.068 297.583L205.509 299.552L209.627 294.447H203.068V297.583ZM149.706 363.734L147.265 361.765L146.57 362.627V363.734H149.706ZM149.706 549.399H146.57V556.029L151.695 551.824L149.706 549.399ZM184.104 521.175L186.392 519.03L184.385 516.888L182.115 518.75L184.104 521.175ZM197.335 535.287L199.349 537.691L201.891 535.561L199.623 533.142L197.335 535.287ZM34.1612 672L31.7599 674.017L33.7744 676.415L36.1752 674.404L34.1612 672ZM-25.8162 607.613L-23.7383 605.264L-23.7491 605.254L-23.7599 605.245L-25.8162 607.613ZM-65.507 581.152H-68.6431V583.057L-66.9522 583.935L-65.507 581.152ZM-65.507 565.276L-66.5177 562.307L-68.6431 563.03V565.276H-65.507ZM-38.1644 542.784L-35.2819 544.02L-35.2791 544.013L-35.2762 544.006L-38.1644 542.784ZM-33.3133 363.734H-30.1772V360.598H-33.3133V363.734ZM-166.939 363.734V360.598H-170.075V363.734H-166.939ZM-207.071 674.646L-209.347 672.489L-209.353 672.495L-209.359 672.501L-207.071 674.646ZM-361.425 711.691L-360.97 708.588L-360.981 708.586L-361.425 711.691ZM-430.222 718.306L-432.392 716.042L-432.416 716.065L-432.44 716.089L-430.222 718.306ZM-440.365 752.705V755.841H-437.229V752.705H-440.365ZM-457.565 752.705L-460.585 753.548L-459.945 755.841H-457.565V752.705ZM-450.509 675.969L-453.203 674.364L-453.21 674.376L-453.217 674.389L-450.509 675.969ZM-417.433 645.098L-416.054 647.915L-416.042 647.909L-416.03 647.903L-417.433 645.098ZM-296.596 606.731L-294.267 608.831L-294.257 608.82L-294.247 608.808L-296.596 606.731ZM-305.857 440.029L-308.402 441.862L-308.397 441.869L-308.392 441.875L-305.857 440.029ZM-431.104 429.886L-432.31 432.781L-429.958 433.76L-428.518 431.659L-431.104 429.886ZM-446.98 423.271L-449.927 422.196L-450.954 425.012L-448.187 426.165L-446.98 423.271ZM-419.638 372.995L-421.969 370.897L-421.984 370.914L-421.998 370.93L-419.638 372.995ZM-377.301 345.212L-376.178 348.14L-376.171 348.137L-377.301 345.212ZM-320.852 337.274L-320.814 340.409L-317.611 340.371L-317.717 337.169L-320.852 337.274ZM-198.251 99.5694L-196.503 102.173L-196.499 102.17L-198.251 99.5694ZM-16.114 3.8703L-14.6306 1.10722L-15.9863 0.37941L-17.3916 1.00629L-16.114 3.8703ZM40.3353 48.8533L37.7023 50.557L37.714 50.575L37.7259 50.5929L40.3353 48.8533ZM57.0937 114.123L53.9603 114.252L54.1851 119.705L58.783 116.765L57.0937 114.123ZM229.528 3.8703L231.403 1.35643L229.666 0.060318L227.839 1.22815L229.528 3.8703ZM335.371 82.811L333.496 85.3249L335.647 86.9291L337.564 85.0523L335.371 82.811ZM-33.3133 297.583V300.719H-30.1772V297.583H-33.3133ZM-89.7626 61.6426L-88.5564 58.7477L-89.8914 58.1915L-91.1812 58.8457L-89.7626 61.6426ZM-132.982 89.8672L-135.199 87.6497L-135.227 87.6774L-135.254 87.7058L-132.982 89.8672ZM-166.939 345.212H-170.075V354.439L-164.453 347.123L-166.939 345.212ZM-130.335 297.583V294.447H-131.881L-132.822 295.672L-130.335 297.583ZM130.301 91.1902H133.437V85.3793L128.58 88.5688L130.301 91.1902ZM57.0937 139.26L55.3724 136.639L53.9576 137.568V139.26H57.0937ZM57.0937 297.583H53.9576V300.719H57.0937V297.583ZM130.301 297.583V300.719H133.437V297.583H130.301ZM-170.026 107.949L-167.13 109.151L-162.554 98.1281L-171.958 105.478L-170.026 107.949ZM-219.86 165.28L-216.975 166.509L-216.972 166.501L-216.968 166.493L-219.86 165.28ZM-247.203 595.264L-249.841 593.568L-249.852 593.585L-249.862 593.602L-247.203 595.264ZM-307.621 638.042L-308.791 635.132L-307.83 641.171L-307.621 638.042ZM-221.183 628.34L-219.686 631.095L-219.676 631.09L-219.665 631.084L-221.183 628.34ZM-194.282 600.556L-197.199 599.405L-197.207 599.426L-197.215 599.447L-194.282 600.556ZM-182.816 146.757L-185.891 146.142L-185.893 146.153L-185.895 146.163L-182.816 146.757ZM130.301 363.734H133.437V360.598H130.301V363.734ZM57.0937 363.734V360.598H53.9576V363.734H57.0937ZM65.0319 553.809L67.8958 552.532L67.8813 552.499L67.866 552.467L65.0319 553.809ZM130.301 565.276L132.381 567.622L133.437 566.687V565.276H130.301ZM374.573 44.4202L388.245 58.5325L392.749 54.1684L379.078 40.0561L374.573 44.4202ZM388.171 54.2473C368.706 75.776 356.031 93.7694 350.524 108.15L356.381 110.393C361.458 97.1373 373.479 79.8498 392.823 58.4537L388.171 54.2473ZM350.532 108.129C345.02 122.213 342.378 143.273 342.378 171.013H348.65C348.65 143.479 351.3 123.378 356.373 110.414L350.532 108.129ZM342.378 171.013V511.913H348.65V171.013H342.378ZM342.378 511.913C342.378 529.477 343.115 543.889 344.61 555.106C346.091 566.207 348.36 574.59 351.699 579.765L356.969 576.365C354.428 572.425 352.288 565.227 350.828 554.277C349.383 543.444 348.65 529.337 348.65 511.913H342.378ZM351.725 579.805C358.123 589.402 366.847 594.431 377.708 594.431V588.159C369.164 588.159 362.306 584.369 356.944 576.325L351.725 579.805ZM377.708 594.431C382.498 594.431 387.928 592.42 393.854 588.925C399.836 585.397 406.625 580.176 414.207 573.338L410.006 568.68C402.594 575.366 396.153 580.288 390.668 583.522C385.128 586.789 380.856 588.159 377.708 588.159V594.431ZM409.59 572.88L422.379 590.079L427.412 586.337L414.623 569.137L409.59 572.88ZM422.959 585.742L316.235 669.533L320.108 674.467L426.832 590.675L422.959 585.742ZM319.587 669.201C294.308 656.417 277.58 641.942 268.887 625.96L263.377 628.956C272.913 646.49 290.878 661.711 316.756 674.799L319.587 669.201ZM268.918 626.017C260.474 609.693 256.038 580.675 256.038 538.374H249.766C249.766 580.747 254.15 611.118 263.347 628.899L268.918 626.017ZM256.038 538.374V116.769H249.766V538.374H256.038ZM254.812 114.281L180.722 57.3912L176.902 62.3659L250.992 119.256L254.812 114.281ZM177.157 57.2146L148.051 75.296L151.361 80.6238L180.467 62.5424L177.157 57.2146ZM146.57 77.9599V297.583H152.842V77.9599H146.57ZM149.706 300.719H203.068V294.447H149.706V300.719ZM200.627 295.614L147.265 361.765L152.147 365.703L205.509 299.552L200.627 295.614ZM146.57 363.734V549.399H152.842V363.734H146.57ZM151.695 551.824L186.094 523.599L182.115 518.75L147.716 546.975L151.695 551.824ZM181.817 523.32L195.047 537.432L199.623 533.142L186.392 519.03L181.817 523.32ZM195.321 532.883L32.1471 669.596L36.1752 674.404L199.349 537.691L195.321 532.883ZM36.5625 669.983C11.8369 640.548 -8.27386 618.944 -23.7383 605.264L-27.894 609.961C-12.7818 623.33 7.09238 644.651 31.7599 674.017L36.5625 669.983ZM-23.7599 605.245C-35.1463 595.357 -48.5891 586.403 -64.0619 578.369L-66.9522 583.935C-51.8483 591.778 -38.8305 600.464 -27.8724 609.98L-23.7599 605.245ZM-62.371 581.152V565.276H-68.6431V581.152H-62.371ZM-64.4964 568.244C-50.1074 563.346 -40.1409 555.357 -35.2819 544.02L-41.0469 541.549C-45.0082 550.792 -53.2701 557.797 -66.5177 562.307L-64.4964 568.244ZM-35.2762 544.006C-33.455 539.701 -32.2145 532.885 -31.4027 523.882C-30.5824 514.784 -30.1772 503.141 -30.1772 488.981H-36.4494C-36.4494 503.045 -36.8528 514.482 -37.6495 523.319C-38.4548 532.25 -39.6398 538.223 -41.0526 541.562L-35.2762 544.006ZM-30.1772 488.981V363.734H-36.4494V488.981H-30.1772ZM-33.3133 360.598H-166.939V366.87H-33.3133V360.598ZM-170.075 363.734V553.809H-163.803V363.734H-170.075ZM-170.075 553.809C-170.075 605.623 -183.313 645.024 -209.347 672.489L-204.795 676.804C-177.32 647.819 -163.803 606.662 -163.803 553.809H-170.075ZM-209.359 672.501C-235.158 700.021 -268.986 713.847 -311.149 713.847V720.119C-267.463 720.119 -231.905 705.721 -204.783 676.791L-209.359 672.501ZM-311.149 713.847C-320.301 713.847 -336.849 712.118 -360.97 708.588L-361.879 714.794C-337.783 718.32 -320.815 720.119 -311.149 720.119V713.847ZM-360.981 708.586C-377.456 706.233 -389.555 705.027 -397.146 705.027V711.299C-390.038 711.299 -378.322 712.445 -361.868 714.795L-360.981 708.586ZM-397.146 705.027C-412.529 705.027 -424.506 708.485 -432.392 716.042L-428.052 720.57C-421.826 714.603 -411.752 711.299 -397.146 711.299V705.027ZM-432.44 716.089C-440.085 723.734 -443.501 736.243 -443.501 752.705H-437.229C-437.229 736.826 -433.883 726.402 -428.005 720.524L-432.44 716.089ZM-440.365 749.569H-457.565V755.841H-440.365V749.569ZM-454.544 751.862C-458.032 739.363 -459.721 729.084 -459.721 720.952H-465.993C-465.993 729.873 -464.153 740.762 -460.585 753.548L-454.544 751.862ZM-459.721 720.952C-459.721 705.648 -455.761 691.197 -447.8 677.549L-453.217 674.389C-461.721 688.966 -465.993 704.504 -465.993 720.952H-459.721ZM-447.814 677.574C-439.879 664.254 -429.3 654.397 -416.054 647.915L-418.811 642.282C-433.202 649.324 -444.674 660.048 -453.203 674.364L-447.814 677.574ZM-416.03 647.903C-406.025 642.901 -387.157 638.96 -358.927 636.314L-359.512 630.069C-387.732 632.714 -407.672 636.712 -418.835 642.293L-416.03 647.903ZM-358.927 636.314C-330.236 633.624 -308.498 624.609 -294.267 608.831L-298.925 604.63C-311.743 618.841 -331.754 627.466 -359.512 630.069L-358.927 636.314ZM-294.247 608.808C-280.075 592.788 -273.174 570.943 -273.174 543.666H-279.446C-279.446 569.898 -286.069 590.097 -298.945 604.653L-294.247 608.808ZM-273.174 543.666C-273.174 501.132 -283.143 465.892 -303.322 438.183L-308.392 441.875C-289.175 468.263 -279.446 502.115 -279.446 543.666H-273.174ZM-303.313 438.196C-323.463 410.226 -348.148 395.879 -377.301 395.879V402.151C-350.593 402.151 -327.648 415.147 -308.402 441.862L-303.313 438.196ZM-377.301 395.879C-400.256 395.879 -419.093 406.824 -433.69 428.112L-428.518 431.659C-414.891 411.786 -397.859 402.151 -377.301 402.151V395.879ZM-429.898 426.991L-445.774 420.376L-448.187 426.165L-432.31 432.781L-429.898 426.991ZM-444.034 424.345C-436.171 402.794 -427.222 386.425 -417.278 375.061L-421.998 370.93C-432.634 383.086 -441.914 400.235 -449.927 422.196L-444.034 424.345ZM-417.307 375.093C-407.113 363.766 -393.445 354.759 -376.178 348.14L-378.423 342.284C-396.437 349.189 -410.995 358.704 -421.969 370.897L-417.307 375.093ZM-376.171 348.137C-363.756 343.34 -345.382 340.702 -320.814 340.409L-320.889 334.138C-345.714 334.433 -364.974 337.087 -378.431 342.286L-376.171 348.137ZM-317.717 337.169C-318.011 328.357 -318.157 321.784 -318.157 317.428H-324.429C-324.429 321.892 -324.28 328.55 -323.986 337.378L-317.717 337.169ZM-318.157 317.428C-318.157 268.454 -308.246 227.436 -288.605 194.219L-294.003 191.026C-314.347 225.43 -324.429 267.616 -324.429 317.428H-318.157ZM-288.605 194.219C-268.909 160.909 -238.266 130.21 -196.503 102.173L-199.999 96.9657C-242.322 125.378 -273.714 156.714 -294.003 191.026L-288.605 194.219ZM-196.499 102.17C-154.38 73.7988 -93.8557 41.9846 -14.8363 6.73432L-17.3916 1.00629C-96.5477 36.3176 -157.448 68.3028 -200.003 96.9684L-196.499 102.17ZM-17.5973 6.63338C10.1776 21.5441 28.4325 36.2308 37.7023 50.557L42.9683 47.1496C32.8337 31.4871 13.4557 16.1851 -14.6306 1.10722L-17.5973 6.63338ZM37.7259 50.5929C47.2679 64.9059 52.7953 86.0026 53.9603 114.252L60.2271 113.994C59.0399 85.2056 53.3951 62.7893 42.9446 47.1137L37.7259 50.5929ZM58.783 116.765L231.218 6.51246L227.839 1.22815L55.4043 111.481L58.783 116.765ZM227.654 6.38418L333.496 85.3249L337.246 80.2972L231.403 1.35643L227.654 6.38418ZM337.564 85.0523L379.019 44.4794L374.632 39.9969L333.177 80.5698L337.564 85.0523ZM-30.1772 297.583V166.162H-36.4494V297.583H-30.1772ZM-30.1772 166.162C-30.1772 133.991 -34.2839 110.072 -42.9387 94.9264L-48.3845 98.0383C-40.5749 111.705 -36.4494 134.239 -36.4494 166.162H-30.1772ZM-42.9387 94.9264C-51.6247 79.7259 -66.9887 67.7343 -88.5564 58.7477L-90.9688 64.5374C-70.1995 73.1913 -56.1628 84.4261 -48.3845 98.0383L-42.9387 94.9264ZM-91.1812 58.8457C-111.55 69.1777 -126.315 78.7656 -135.199 87.6497L-130.764 92.0847C-122.596 83.9164 -108.548 74.6879 -88.3439 64.4394L-91.1812 58.8457ZM-135.254 87.7058C-147.057 100.114 -155.813 114.927 -161.535 132.094L-155.585 134.078C-150.135 117.729 -141.839 103.729 -130.709 92.0286L-135.254 87.7058ZM-161.535 132.094C-167.28 149.33 -170.075 173.836 -170.075 205.412H-163.803C-163.803 174.07 -161.012 150.359 -155.585 134.078L-161.535 132.094ZM-170.075 205.412V345.212H-163.803V205.412H-170.075ZM-164.453 347.123L-127.849 299.494L-132.822 295.672L-169.426 343.301L-164.453 347.123ZM-130.335 300.719H-33.3133V294.447H-130.335V300.719ZM128.58 88.5688L55.3724 136.639L58.815 141.882L132.023 93.8117L128.58 88.5688ZM53.9576 139.26V297.583H60.2297V139.26H53.9576ZM57.0937 300.719H130.301V294.447H57.0937V300.719ZM133.437 297.583V91.1902H127.165V297.583H133.437ZM-171.958 105.478C-197.717 125.612 -214.808 145.122 -222.753 164.067L-216.968 166.493C-209.625 148.98 -193.493 130.27 -168.095 110.419L-171.958 105.478ZM-222.745 164.05C-230.663 182.627 -234.463 214.661 -234.463 259.656H-228.191C-228.191 214.684 -224.346 183.802 -216.975 166.509L-222.745 164.05ZM-234.463 259.656V509.267H-228.191V259.656H-234.463ZM-234.463 509.267C-234.463 550.06 -239.782 577.921 -249.841 593.568L-244.565 596.96C-233.456 579.679 -228.191 550.208 -228.191 509.267H-234.463ZM-249.862 593.602C-259.635 609.239 -279.047 623.176 -308.791 635.132L-306.452 640.952C-276.219 628.8 -255.351 614.218 -244.544 596.926L-249.862 593.602ZM-307.83 641.171C-294.558 642.056 -283.312 642.501 -274.105 642.501V636.229C-283.126 636.229 -294.224 635.792 -307.413 634.913L-307.83 641.171ZM-274.105 642.501C-252.029 642.501 -233.821 638.777 -219.686 631.095L-222.681 625.585C-235.595 632.603 -252.667 636.229 -274.105 636.229V642.501ZM-219.665 631.084C-205.43 623.209 -195.809 613.454 -191.349 601.666L-197.215 599.447C-200.987 609.415 -209.3 618.182 -222.702 625.596L-219.665 631.084ZM-191.365 601.708C-186.716 589.931 -184.531 569.993 -184.531 542.343H-190.803C-190.803 569.966 -193.027 588.837 -197.199 599.405L-191.365 601.708ZM-184.531 542.343V209.822H-190.803V542.343H-184.531ZM-184.531 209.822C-184.531 184.651 -182.919 163.845 -179.736 147.352L-185.895 146.163C-189.18 163.186 -190.803 184.423 -190.803 209.822H-184.531ZM-179.74 147.372C-177.739 137.367 -173.561 124.643 -167.13 109.151L-172.923 106.746C-179.428 122.419 -183.776 135.568 -185.891 146.142L-179.74 147.372ZM130.301 360.598H57.0937V366.87H130.301V360.598ZM53.9576 363.734V477.956H60.2297V363.734H53.9576ZM53.9576 477.956C53.9576 497.711 54.6204 514.001 55.9592 526.793C57.2886 539.496 59.3115 549.059 62.1976 555.152L67.866 552.467C65.4601 547.388 63.5139 538.722 62.1973 526.14C60.89 513.648 60.2297 497.597 60.2297 477.956H53.9576ZM62.1679 555.087C70.9348 574.737 83.2485 585.611 99.4306 585.611V579.339C86.8001 579.339 76.1813 571.103 67.8958 552.532L62.1679 555.087ZM99.4306 585.611C104 585.611 109.026 583.913 114.408 580.915C119.82 577.899 125.815 573.443 132.381 567.622L128.221 562.929C121.852 568.574 116.233 572.718 111.355 575.436C106.446 578.171 102.505 579.339 99.4306 579.339V585.611ZM133.437 565.276V363.734H127.165V565.276H133.437Z" fill="#EABF77"/>
</svg>
